<?xml version="1.0" encoding="utf-8"?>
<!-- Generator: Adobe Illustrator 16.0.0, SVG Export Plug-In . SVG Version: 6.00 Build 0)  -->
<!DOCTYPE svg PUBLIC "-//W3C//DTD SVG 1.1//EN" "http://www.w3.org/Graphics/SVG/1.1/DTD/svg11.dtd">
<svg version="1.1" id="Layer_1" xmlns="http://www.w3.org/2000/svg" xmlns:xlink="http://www.w3.org/1999/xlink" x="0px" y="0px"
	 width="1024px" height="768px" viewBox="0 0 1024 768" enable-background="new 0 0 1024 768" xml:space="preserve">
<g>
	<g>
		<path fill="#FFFFFF" d="M231.981,709.542h115.581l15.201,51.991h116.159L346.547,398.037H237.095L103.208,761.533h112.517
			L231.981,709.542z M291.552,519.727h0.995l32.611,111.899h-68.664L291.552,519.727z"/>
		<path fill="#FFFFFF" d="M587.26,768h206.212c15.937,0,31.556-2.368,46.817-7.163c15.38-4.796,28.89-11.739,40.609-20.853
			c11.978-9.192,21.528-20.673,28.751-34.342c7.361-13.729,11.122-29.846,11.122-48.15c0-13.212-1.751-24.971-5.313-35.158
			c-3.661-10.187-8.316-18.882-14.066-26.204c-5.91-7.242-12.436-13.251-20.096-18.026c-7.761-4.735-15.619-8.575-23.737-11.222
			c13.569-7.422,24.453-16.614,32.591-27.558c8.218-10.863,12.316-25.349,12.316-43.733c0-9.112-1.473-19.041-4.716-29.686
			c-2.984-10.784-8.774-20.634-17.529-29.905c-8.595-9.033-20.493-16.614-35.556-22.623c-15.161-5.988-34.641-8.953-58.277-8.953
			H587.26V768z M699.339,490.896h59.055c11.52,0,20.931,1.87,27.835,5.671c6.904,3.74,10.446,10.247,10.446,19.26
			c0,11.958-3.502,19.977-10.247,23.916c-6.824,4.119-16.156,6.129-28.055,6.129h-59.054v-54.976H699.339z M699.339,613.699h70.236
			c26.125,0,39.236,11.122,39.236,33.089c0,7.202-1.214,13.032-3.661,17.43c-2.367,4.317-5.591,7.799-9.67,10.405
			c-3.939,2.567-8.694,4.357-13.907,5.313c-5.313,1.015-10.943,1.492-16.714,1.492h-65.64v-67.729H699.339L699.339,613.699z"/>
		<path fill="#FFFFFF" d="M345.851,325.812c15.818,16.912,34.999,30.343,57.741,40.171c22.702,9.909,48.906,14.844,78.374,14.844
			c26.522,0,50.22-4.397,70.833-13.291c20.652-8.774,38.122-20.454,52.149-34.979c14.027-14.307,24.712-30.582,32.054-48.528
			c7.242-17.987,10.903-36.094,10.903-54.479h-109.83c-1.651,8.536-3.94,16.475-6.904,23.916
			c-2.886,7.462-6.566,13.929-11.103,19.34c-4.676,5.412-10.207,9.631-16.853,12.734c-6.546,3.084-14.664,4.536-24.175,4.536
			c-13.271,0-24.274-2.865-33.108-8.675c-8.874-5.71-15.958-13.311-21.131-22.842c-5.253-9.49-9.073-20.215-11.421-32.073
			c-2.427-11.819-3.601-23.916-3.601-36.173c0-12.296,1.154-24.154,3.601-36.033c2.348-11.879,6.108-22.603,11.421-32.074
			c5.293-9.511,12.236-17.131,21.131-22.98c8.755-5.81,19.837-8.715,33.108-8.715c11.52,0,20.892,2.288,28.293,6.665
			c7.242,4.418,13.132,9.491,17.45,15.341c4.437,5.771,7.521,11.6,9.172,17.51c1.751,5.988,2.945,10.645,3.602,14.007h108.955
			c-4.835-45.782-20.812-81.259-47.991-106.13C571.063,13.032,532.324,0.279,481.966,0c-28.114,0-53.563,4.457-76.086,13.809
			c-22.543,9.033-41.843,21.966-58.02,38.64c-16.076,16.634-28.472,36.649-37.127,60.128c-8.655,23.359-12.953,49.384-12.953,77.777
			c0,26.82,4.119,52.01,12.177,75.17C318.154,288.684,330.073,308.839,345.851,325.812z"/>
	</g>
</g>
</svg>
