<?xml version="1.0" encoding="utf-8"?>
<!-- Generator: Adobe Illustrator 16.0.0, SVG Export Plug-In . SVG Version: 6.00 Build 0)  -->
<!DOCTYPE svg PUBLIC "-//W3C//DTD SVG 1.1//EN" "http://www.w3.org/Graphics/SVG/1.1/DTD/svg11.dtd">
<svg version="1.1" id="Isolation_Mode" xmlns="http://www.w3.org/2000/svg" xmlns:xlink="http://www.w3.org/1999/xlink" x="0px"
	 y="0px" width="882.088px" height="768px" viewBox="70.275 0 882.088 768" enable-background="new 70.275 0 882.088 768"
	 xml:space="preserve">
<path fill="#FFFFFF" d="M931.129,407.016c0-4.846-2.422-7.269-7.268-9.691c14.536-14.536,24.227-29.072,24.227-50.877
	c0-65.413-79.949-79.949-79.949-109.021c0,31.495-79.949,43.608-79.949,109.021c0,21.805,9.69,38.764,24.227,50.877
	c-2.422,2.423-7.268,4.846-7.268,9.691c0,7.268,4.846,12.113,12.113,12.113v65.413c-7.268,0-12.113,4.846-12.113,12.113
	c0,7.269,4.846,12.114,12.113,12.114v33.918H664.631v-50.877h-16.959v-33.918h-2.423c31.495-29.073,48.454-65.414,48.454-113.868
	c0-135.671-150.208-174.435-179.28-230.157c4.846,2.423,9.69,2.423,14.536,2.423c19.382,0,36.341-7.269,48.454-24.228
	c4.846-4.845,7.269-9.69,9.691-16.959l0,0l0,0c-9.691,7.269-21.805,9.691-33.918,9.691c-14.536,0-29.073-4.846-38.764-14.536
	C495.041,53.3,487.772,26.65,497.464,0l0,0l0,0c-4.846,2.423-9.691,7.268-14.536,12.113c-9.691,12.113-14.537,29.072-14.537,46.031
	c2.423,16.959,9.691,31.495,21.805,41.187c4.846,4.846,9.691,7.268,16.959,9.69c-24.227,58.146-179.28,94.486-179.28,232.58
	c0,48.455,19.381,82.373,48.454,113.868h-2.423v33.918h-16.959v50.877H206.738V508.77c7.268,0,12.113-4.846,12.113-12.114
	c0-7.268-4.845-12.113-12.113-12.113v-65.413c7.268,0,12.113-4.846,12.113-12.113c0-4.846-2.422-7.269-7.268-9.691
	c14.537-14.536,24.227-29.072,24.227-50.877c0-65.413-79.949-79.949-79.949-109.021c0,31.495-79.95,43.608-79.95,109.021
	c0,21.805,9.691,38.764,24.227,50.877c-2.422,2.423-7.268,4.846-7.268,9.691c0,7.268,4.846,12.113,12.114,12.113v65.413
	c-7.268,0-12.114,4.846-12.114,12.113c0,7.269,4.846,12.114,12.114,12.114v33.918l0,0v227.734h101.754v-87.218
	c0-36.34,50.877-60.567,50.877-60.567s50.877,24.228,50.877,60.567v87.218h130.826V646.865c0-50.877,72.682-84.796,72.682-84.796
	s72.682,33.919,72.682,84.796v123.558h128.403v-87.218c0-36.34,50.877-60.567,50.877-60.567s50.877,24.228,50.877,60.567v87.218
	h101.754V542.688l0,0V508.77c7.269,0,12.114-4.846,12.114-12.114c0-7.268-2.423-12.113-9.691-12.113v-65.413
	C926.284,416.706,931.129,411.861,931.129,407.016z"/>
</svg>
