<?xml version="1.0" encoding="utf-8"?>
<!-- Generator: Adobe Illustrator 16.0.0, SVG Export Plug-In . SVG Version: 6.00 Build 0)  -->
<!DOCTYPE svg PUBLIC "-//W3C//DTD SVG 1.1//EN" "http://www.w3.org/Graphics/SVG/1.1/DTD/svg11.dtd">
<svg version="1.1" id="Layer_1" xmlns="http://www.w3.org/2000/svg" xmlns:xlink="http://www.w3.org/1999/xlink" x="0px" y="0px"
	 width="1024px" height="768px" viewBox="0 0 1024 768" enable-background="new 0 0 1024 768" xml:space="preserve">
<g>
	<g>
		<g>
			<path fill="#FFFFFF" d="M906.004,274.449c0,0.906-0.144,1.55-0.382,2.003c-0.644,2.218-1.574,4.674-2.79,7.345
				c-1.264,2.671-2.504,6.343-3.863,10.993l-4.65,0.668c-6.009,1.55-11.637,3.648-17.002,6.318
				c-2.647,1.336-5.223,2.457-7.631,3.339c-2.48,0.883-5.127,2.671-8.013,5.342c-10.659,7.988-21.891,18.219-33.671,30.666
				c1.121-6.438,3.91-12.9,8.346-19.339l16.669-18.004h-25.015c-7.321-0.215-11.876-2.552-13.641-6.987
				c-1.573-6.224-1.765-12.328-0.644-18.338c1.073-6.677,3.577-13.879,7.512-21.652c3.863-7.774,8.656-14.021,14.308-18.672
				c5.676-4.674,12.52-7.988,20.484-9.992c1.765-0.214,4.102-0.286,7.034-0.167c2.838,0.12,5.676,0.954,8.489,2.48
				c2.791,1.55,4.603,4.34,5.485,8.347c0.477,8.656-2.099,16.215-7.679,22.654c-9.539-10.66-21.199-11.661-34.982-2.981
				c-3.529,2.433-6.559,6.224-8.99,11.327c10.206,7.56,24.776,10.54,43.639,8.99l32.002-3.673h1.359l2.003-0.667H906.004
				L906.004,274.449z M888.31,604.389c0.882,23.989,0.882,43.233,0,57.661c-2.003,22.225-4.937,39.274-8.8,51.15
				c-3.91,11.899-7.535,21.844-10.993,29.855c-3.457,7.989-7.416,16.312-11.827,24.968l-32.002-333.564
				c-0.239-5.557,10.516-40.563,32.312-104.996l4.34-10.326l8.656,64.982l10.659,97.984l0.979,16.002l3.362,52.009l1.669,31.978
				L888.31,604.389z"/>
		</g>
		<g>
			<path fill="#FFFFFF" d="M446.41,236.939c-25.325,0.453-44.808-2.886-58.495-9.992c-13.664-7.105-23.823-16.048-30.5-26.827
				c-6.653-10.778-9.992-20.723-9.992-29.808c-2.67-27.113,2.17-57.208,14.499-90.331c12.329-33.099,25.277-53.32,38.822-60.642
				c-5.985,19.77-11.446,39.991-16.311,60.642c-7.345,33.553-5.222,56.993,6.343,70.323c11.542,13.331,30.213,20.008,55.991,20.008
				h276.596c-2.886-29.784-16.764-59.426-41.636-88.972L707.362,0c15.095,21.986,26.875,40.873,35.293,56.659
				c8.441,15.786,14.618,31.597,18.48,47.479c3.911,15.905,5.533,29.379,5.032,40.491c-0.549,11.112-3.577,24.776-9.038,40.992
				c-5.461,16.215-10.254,28.83-14.475,37.82c-4.245,8.99-15.786,13.497-34.649,13.497H446.41z M553.386,354.931
				c-21.796-6.438-39.562-20.556-53.321-42.327l48.289-42.328c13.545,15.119,30.548,29.212,50.984,42.328L553.386,354.931z"/>
		</g>
		<g>
			<path fill="#FFFFFF" d="M217.675,766.688c-25.325,0.453-44.808-2.885-58.496-9.968c-13.664-7.13-23.823-16.072-30.5-26.851
				c-6.653-10.778-9.992-20.699-9.992-29.832c-2.671-27.113,2.17-57.184,14.499-90.307s25.277-53.32,38.822-60.642
				c-5.985,19.745-11.446,39.99-16.335,60.642c-7.345,33.552-5.222,56.993,6.343,70.323c11.542,13.33,30.213,19.983,55.992,19.983
				h276.619c-2.886-29.761-16.788-59.426-41.66-88.947l25.659-81.316c15.118,21.986,26.875,40.873,35.316,56.635
				c8.441,15.787,14.618,31.621,18.505,47.503s5.557,29.379,4.984,40.467c-0.549,11.137-3.554,24.776-8.99,40.992
				c-5.438,16.239-10.278,28.831-14.499,37.868c-4.221,8.99-15.786,13.474-34.648,13.474h-261.62V766.688z M410.641,417.79
				l-38.321,48.98c-18.672-5.985-39.442-18.219-62.311-36.652l-30.667,35.007c-23.107-9.348-43.663-21.652-61.643-37.01
				l43.663-50.315c17.98,15.333,36.652,28.329,55.992,38.988l35.293-36.676C373.106,397.449,392.422,409.992,410.641,417.79z"/>
		</g>
	</g>
</g>
</svg>
