<?xml version="1.0" encoding="utf-8"?>
<!-- Generator: Adobe Illustrator 16.0.0, SVG Export Plug-In . SVG Version: 6.00 Build 0)  -->
<!DOCTYPE svg PUBLIC "-//W3C//DTD SVG 1.1//EN" "http://www.w3.org/Graphics/SVG/1.1/DTD/svg11.dtd">
<svg version="1.1" id="Layer_1" xmlns="http://www.w3.org/2000/svg" xmlns:xlink="http://www.w3.org/1999/xlink" x="0px" y="0px"
	 width="41.324px" height="20.463px" viewBox="0 0 41.324 20.463" enable-background="new 0 0 41.324 20.463" xml:space="preserve">
<g>
	<g>
		<path fill="#FFFFFF" d="M4.567,8.302l2.535,8.997l4.665-1.313L7.37,0.367L3.688,1.401c0.153,0.657,0.153,1.24,0,1.759
			C3.535,3.678,3.28,4.128,2.918,4.513c-0.36,0.383-0.792,0.707-1.3,0.974C1.113,5.749,0.572,5.952,0,6.104L0.911,9.33L4.567,8.302z
			"/>
		<path fill="#FFFFFF" d="M39.933,13.785L32.744,12.3l0.004-0.023c0.838-0.301,1.722-0.584,2.631-0.834
			c0.91-0.254,1.763-0.58,2.549-0.959C38.723,10.094,39.41,9.602,40,8.997c0.584-0.611,0.986-1.428,1.194-2.442
			c0.177-0.838,0.171-1.601-0.008-2.301c-0.185-0.695-0.517-1.305-1-1.838c-0.487-0.526-1.108-0.979-1.867-1.35
			c-0.757-0.368-1.614-0.655-2.577-0.853c-1.062-0.22-2.058-0.272-2.979-0.141c-0.924,0.126-1.741,0.42-2.454,0.883
			c-0.715,0.462-1.302,1.092-1.769,1.878c-0.469,0.798-0.783,1.75-0.947,2.853l4.291,0.893c0.17-0.984,0.496-1.739,0.976-2.267
			c0.483-0.523,1.188-0.69,2.099-0.504c0.529,0.111,0.957,0.346,1.268,0.699c0.318,0.364,0.4,0.91,0.247,1.637
			c-0.062,0.291-0.185,0.533-0.382,0.73c-0.19,0.202-0.416,0.369-0.674,0.505c-0.256,0.138-0.526,0.252-0.813,0.352
			c-0.283,0.104-0.535,0.193-0.757,0.271c-0.568,0.202-1.146,0.407-1.745,0.605c-0.598,0.203-1.184,0.424-1.746,0.662
			c-0.561,0.244-1.102,0.514-1.622,0.815c-0.516,0.307-0.985,0.659-1.418,1.042c-0.502,0.449-0.926,0.98-1.271,1.596
			c-0.336,0.614-0.565,1.307-0.684,2.09l13.764,2.851L39.933,13.785z"/>
		<polygon fill="#FFFFFF" points="15.969,20.463 19.255,17.179 22.515,20.463 25.059,17.948 21.774,14.658 25.059,11.345 
			22.537,8.835 19.255,12.142 15.969,8.853 13.45,11.374 16.735,14.658 13.45,17.948 		"/>
	</g>
</g>
</svg>
