<?xml version="1.0" encoding="utf-8"?>
<!-- Generator: Adobe Illustrator 16.0.0, SVG Export Plug-In . SVG Version: 6.00 Build 0)  -->
<!DOCTYPE svg PUBLIC "-//W3C//DTD SVG 1.1//EN" "http://www.w3.org/Graphics/SVG/1.1/DTD/svg11.dtd">
<svg version="1.1" id="Layer_1" xmlns="http://www.w3.org/2000/svg" xmlns:xlink="http://www.w3.org/1999/xlink" x="0px" y="0px"
	 width="770.059px" height="768px" viewBox="128 0 770.059 768" enable-background="new 128 0 770.059 768" xml:space="preserve">
<g>
	<path fill="#FFFFFF" d="M513.029,0C300.955,0,128,172.954,128,385.03S300.955,768,513.029,768
		c212.075,0,385.029-172.955,385.029-385.03C896,172.954,725.104,0,513.029,0z M628.332,710.348c0-6.177-4.117-12.354-4.117-12.354
		l30.885-45.298c0,0,24.707-30.885,28.825-43.238s35.003-28.826,53.533-61.77c18.531-35.003-78.241-12.354-65.887-20.59
		c12.354-8.235-22.649-16.472-59.711-26.767c-37.062-12.354-53.533-61.77-53.533-61.77
		c-96.772-37.062-18.531,127.657-18.531,127.657s26.767,8.235,28.826,37.062c4.118,26.767-6.177,107.066,26.767,117.361
		c-26.767,6.178-55.593,10.295-84.418,10.295c-191.485,0-345.909-154.423-345.909-345.908c0-30.885,4.118-59.711,12.354-86.478
		c10.295,18.531,30.885,47.356,65.887,96.772c76.183,105.008,119.421,65.887,201.78,127.656s35.003-45.297,0-45.297
		c-35.002,0-59.71-76.183-59.71-76.183s-16.472-53.533,12.354-80.301c28.826-26.767,37.062,6.178,59.711,0
		c22.648-6.177,35.002-35.002,24.707-63.828c-10.295-28.825-35.002,22.649-51.475,16.473c-16.472-6.178-6.177-28.826,76.183-47.357
		c82.359-18.53,24.708-47.356,24.708-47.356s-35.003,16.472-65.888-6.177s-24.708,37.062-57.651-22.648
		c-20.59-49.416-74.124-37.062-113.244-35.003C354.488,67.947,430.67,39.12,513.029,39.12c109.126,0,205.898,51.475,269.727,129.716
		c-30.885,2.06-80.3,14.413-92.654,55.593l-45.297,51.475c-53.534,63.828,20.59,113.243,35.002,109.126
		c14.413-4.118,41.18-26.767,59.711,18.53c18.53,45.298,18.53,135.894,30.885,150.306c12.354,14.413,45.298-20.59,43.238-78.241
		c6.177-16.472,35.003-39.12,45.298-65.888C846.585,549.748,753.931,665.051,628.332,710.348z"/>
</g>
</svg>
