<?xml version="1.0" encoding="utf-8"?>
<!-- Generator: Adobe Illustrator 16.0.0, SVG Export Plug-In . SVG Version: 6.00 Build 0)  -->
<!DOCTYPE svg PUBLIC "-//W3C//DTD SVG 1.1//EN" "http://www.w3.org/Graphics/SVG/1.1/DTD/svg11.dtd">
<svg version="1.1" id="Isolation_Mode" xmlns="http://www.w3.org/2000/svg" xmlns:xlink="http://www.w3.org/1999/xlink" x="0px"
	 y="0px" width="870.917px" height="119.828px" viewBox="10.59 -9.808 870.917 119.828"
	 enable-background="new 10.59 -9.808 870.917 119.828" xml:space="preserve">
<g>
	<g>
		<path fill="#FFFFFF" d="M180.89,28.982c6.348-1.059,14.461-1.646,23.045-1.646c14.815,0,25.044,3.058,32.334,9.171
			c7.645,6.234,12.348,15.637,12.348,29.157c0,14.111-4.823,24.693-12.348,31.512c-7.879,7.176-20.455,10.82-35.862,10.82
			c-8.466,0-14.813-0.475-19.517-1.061V28.982z M195.354,96.123c1.997,0.349,5.056,0.349,7.995,0.349
			c18.815,0.118,29.983-10.228,29.983-30.333c0.117-17.518-9.992-27.516-28.103-27.516c-4.586,0-7.879,0.352-9.876,0.823
			L195.354,96.123L195.354,96.123z"/>
		<path fill="#FFFFFF" d="M292.821,107.176l-0.938-6.354h-0.349c-3.53,4.471-9.528,7.646-16.935,7.646
			c-11.522,0-17.99-8.35-17.99-17.051c0-14.461,12.816-21.75,33.984-21.635v-0.941c0-3.762-1.53-9.994-11.645-9.994
			c-5.641,0-11.521,1.766-15.4,4.234l-2.824-9.405c4.236-2.588,11.641-5.053,20.697-5.053c18.343,0,23.635,11.637,23.635,24.1
			v20.696c0,5.175,0.233,10.232,0.822,13.76H292.82L292.821,107.176L292.821,107.176z M290.944,79.187
			c-10.235-0.23-19.991,2.002-19.991,10.697c0,5.646,3.646,8.236,8.23,8.236c5.761,0,9.997-3.765,11.286-7.882
			c0.351-1.053,0.475-2.231,0.475-3.173V79.187L290.944,79.187z"/>
		<path fill="#FFFFFF" d="M320.33,68.371c0-7.761-0.117-13.286-0.466-18.459h12.58l0.47,10.934h0.471
			c2.822-8.111,9.524-12.229,15.638-12.229c1.411,0,2.233,0.117,3.408,0.352v13.641c-1.175-0.238-2.47-0.473-4.231-0.473
			c-6.938,0-11.642,4.472-12.936,10.937c-0.237,1.298-0.471,2.822-0.471,4.47v29.629H320.33V68.371L320.33,68.371z"/>
		<path fill="#75D8CC" d="M402.989,84.714l-6.819,22.462h-14.935l25.396-79.252h18.464l25.75,79.252H435.32l-7.17-22.462H402.989z
			 M425.679,73.783l-6.229-19.52c-1.526-4.826-2.82-10.232-3.998-14.818h-0.237c-1.175,4.586-2.352,10.116-3.765,14.818l-6.11,19.52
			H425.679z"/>
		<path fill="#75D8CC" d="M460.714,23.692h14.578v83.484h-14.578V23.692z"/>
		<path fill="#75D8CC" d="M582.757,74.839c-0.469-10.232-1.059-22.574-0.939-33.275h-0.35c-2.59,9.643-5.881,20.341-9.41,30.338
			l-11.521,34.336h-11.17l-10.578-33.869c-3.059-10.109-5.883-20.926-8-30.805h-0.232c-0.354,10.349-0.824,22.928-1.412,33.749
			l-1.764,31.866h-13.523l5.293-79.255h19.049l10.346,31.866c2.826,9.29,5.295,18.699,7.293,27.518h0.354
			c2.115-8.584,4.82-18.344,7.877-27.631l10.936-31.752h18.814l4.582,79.255h-14.105L582.757,74.839z"/>
		<path fill="#75D8CC" d="M645.193,107.176l-0.947-6.354h-0.354c-3.523,4.471-9.521,7.646-16.93,7.646
			c-11.521,0-17.99-8.35-17.99-17.051c0-14.461,12.816-21.75,33.982-21.635v-0.941c0-3.762-1.527-9.994-11.639-9.994
			c-5.645,0-11.525,1.766-15.404,4.234l-2.824-9.405c4.234-2.588,11.646-5.053,20.697-5.053c18.344,0,23.629,11.637,23.629,24.1
			v20.696c0,5.175,0.238,10.232,0.83,13.76h-13.053v-0.003H645.193z M643.306,79.187c-10.232-0.23-19.988,2.002-19.988,10.697
			c0,5.646,3.643,8.236,8.229,8.236c5.76,0,9.994-3.765,11.289-7.882c0.354-1.053,0.471-2.231,0.471-3.173V79.187L643.306,79.187z"
			/>
		<path fill="#75D8CC" d="M672.699,66.962c0-6.586-0.125-12.108-0.475-17.051h12.699l0.707,8.584h0.354
			c2.467-4.47,8.697-9.879,18.221-9.879c9.996,0,20.344,6.469,20.344,24.579v33.977h-14.463V74.839
			c0-8.229-3.059-14.463-10.934-14.463c-5.762,0-9.758,4.115-11.287,8.465c-0.469,1.298-0.588,3.062-0.588,4.705v33.633h-14.578
			V66.962z"/>
		<path fill="#75D8CC" d="M739.951,23.692h14.576v34.096h0.234c1.768-2.703,4.115-4.938,7.178-6.588
			c2.818-1.639,6.229-2.584,9.877-2.584c9.76,0,19.986,6.469,19.986,24.812v33.748h-14.463V75.072
			c0-8.349-3.057-14.578-11.051-14.578c-5.645,0-9.641,3.77-11.172,8.11c-0.467,1.179-0.586,2.706-0.586,4.353v34.223h-14.578
			L739.951,23.692L739.951,23.692z"/>
		<path fill="#75D8CC" d="M839.419,107.176l-0.939-6.354h-0.354c-3.523,4.471-9.525,7.646-16.934,7.646
			c-11.52,0-17.984-8.35-17.984-17.051c0-14.461,12.814-21.75,33.98-21.635v-0.941c0-3.762-1.527-9.994-11.639-9.994
			c-5.645,0-11.521,1.766-15.406,4.234l-2.82-9.405c4.232-2.588,11.643-5.053,20.693-5.053c18.34,0,23.635,11.637,23.635,24.1
			v20.696c0,5.175,0.234,10.232,0.824,13.76h-13.057V107.176L839.419,107.176z M837.537,79.187
			c-10.23-0.23-19.986,2.002-19.986,10.697c0,5.646,3.643,8.236,8.23,8.236c5.756,0,9.996-3.765,11.281-7.882
			c0.355-1.053,0.475-2.231,0.475-3.173V79.187L837.537,79.187z"/>
		<path fill="#75D8CC" d="M866.927,23.692h14.58v83.484h-14.58V23.692z"/>
	</g>
	<g>
		<g>
			<g>
				<g>
					<path fill="#FFFFFF" d="M108.242,51.346c1.208,6.218,1.139,10.61,1.128,11.161l-0.019,0.248v0.516v28.568H98.304v3.94
						l-1.624-0.185c-1.421-0.151-2.846-0.229-4.242-0.229c-10.678,0-21.219,4.398-24.577,7.026l-0.66,0.511l-0.956,0.741
						l-0.949-0.741l-0.661-0.511c-3.361-2.628-13.903-7.026-24.58-7.026c-1.394,0-2.821,0.076-4.24,0.229l-1.76,0.185v-3.94H23.017
						V63.271v-0.41l-0.023-0.406c-0.006-0.103-0.354-11.107,4.945-23.81c6.81-16.328,19.669-28.178,38.242-35.292
						c10.28,3.932,18.806,9.331,25.53,16.125c1.506-4.009,4.026-7.535,7.275-10.213C90.291,0.97,79.267-5.448,66.181-9.808
						C52.912-5.385,41.748,1.149,32.995,9.622c-7.1,6.868-12.652,15.023-16.499,24.25c-6.561,15.72-5.891,29.146-5.883,29.278
						l0.001,0.063v0.06v46.748h111.132V63.271V63.21l0.004-0.062c0.002-0.077,0.22-4.814-0.937-11.884
						c-2.055,0.565-4.208,0.898-6.44,0.898C112.254,52.165,110.206,51.866,108.242,51.346z"/>
				</g>
				<path fill="#FFFFFF" d="M92.813,72.187c-0.704,0-1.276,0.564-1.276,1.27c0,0.699,0.572,1.271,1.276,1.271h6.718
					c0.696,0,1.266-0.57,1.266-1.271c0-0.705-0.57-1.27-1.266-1.27H92.813z"/>
				<path fill="#FFFFFF" d="M100.815,80.705c0-0.699-0.569-1.266-1.268-1.266h-8.263c-0.7,0-1.274,0.564-1.274,1.266
					c0,0.699,0.574,1.271,1.274,1.271h8.263C100.246,81.974,100.815,81.403,100.815,80.705z"/>
				<path fill="#FFFFFF" d="M99.547,83.064h-6.734c-0.704,0-1.276,0.564-1.276,1.264c0,0.709,0.557,1.274,1.276,1.274h6.734
					c0.699,0,1.268-0.575,1.268-1.274C100.815,83.63,100.246,83.064,99.547,83.064z"/>
				<path fill="#FFFFFF" d="M100.805,77.085c0-0.701-0.566-1.282-1.27-1.282H90.37c-0.706,0-1.276,0.581-1.276,1.282
					s0.57,1.268,1.276,1.268h9.165C100.239,78.352,100.805,77.787,100.805,77.085z"/>
				<path fill="#FFFFFF" d="M31.312,73.457c0,0.699,0.566,1.271,1.265,1.271h6.716c0.703,0,1.28-0.57,1.28-1.271
					c0-0.705-0.578-1.27-1.28-1.27H32.58C31.878,72.187,31.312,72.751,31.312,73.457z"/>
				<path fill="#FFFFFF" d="M31.304,77.085c0,0.701,0.566,1.268,1.262,1.268h9.172c0.706,0,1.284-0.564,1.284-1.268
					c0-0.701-0.578-1.282-1.284-1.282h-9.172C31.866,75.802,31.304,76.384,31.304,77.085z"/>
				<path fill="#FFFFFF" d="M31.298,80.705c0,0.698,0.565,1.271,1.263,1.271h8.261c0.707,0,1.282-0.571,1.282-1.271
					c0-0.701-0.575-1.266-1.282-1.266h-8.261C31.864,79.439,31.298,80.005,31.298,80.705z"/>
				<path fill="#FFFFFF" d="M31.298,84.328c0,0.699,0.565,1.274,1.263,1.274h6.733c0.714,0,1.28-0.565,1.28-1.274
					c0-0.697-0.578-1.264-1.28-1.264h-6.733C31.864,83.064,31.298,83.63,31.298,84.328z"/>
				<path fill="#FFFFFF" d="M77.543,31.692l-0.045,0.647c-0.004,0.071-0.329,6.008,1.99,8.345c0.264-0.974,0.875-2.434,2.262-3.469
					c-1.61-7.145-7.977-12.477-15.6-12.477c-7.636,0-14.003,5.363-15.596,12.522c0.515,0.234,2.001,1.087,2.337,3.303
					c0.98-0.662,2.6-2.549,1.936-7.584l-0.192-1.511l1.187,0.965c0.074,0.053,6.953,5.466,16.815,2.104
					c-0.797-0.439-1.812-1.073-2.57-1.786l-1.131-1.06L77.543,31.692L77.543,31.692z"/>
				<path fill="#FFFFFF" d="M83.441,35.983c0.027-0.359,0.05-0.716,0.05-1.084c0-9.495-7.695-17.188-17.19-17.188
					c-9.498,0-17.203,7.693-17.203,17.188c0,0.368,0.04,0.725,0.054,1.084C51.48,28.732,58.272,23.1,66.3,23.1
					C74.326,23.1,81.119,28.732,83.441,35.983z"/>
				<path fill="#FFFFFF" d="M85.446,42.746c0-2.497-1.093-4.525-2.443-4.525c-0.35,0-0.695,0.159-1.002,0.415
					c0-0.009,0-0.021,0-0.037c-1.32,1.344-1.479,3.192-1.479,3.209l-0.067,0.96l-0.84-0.471c-3.171-1.769-3.377-7.44-3.35-9.388
					h-3.972c1.061,0.687,2.097,1.155,2.111,1.163l1.283,0.591l-1.306,0.532c-8.806,3.588-15.623,0.479-18.206-1.067
					c0.443,6.899-3.5,7.919-3.678,7.968l-0.748,0.173v-0.766c0-1.841-0.907-2.665-1.418-2.99c0,0.015-0.006,0.034-0.006,0.043
					c-0.282-0.208-0.58-0.335-0.902-0.335c-1.35,0-2.437,2.027-2.437,4.521c0,2.481,1.087,4.499,2.437,4.499
					c0.641,0,1.215-0.459,1.654-1.196c2.186,6.237,8.1,10.707,15.081,10.707c7.023,0,12.975-4.523,15.135-10.817
					c0.438,0.813,1.051,1.307,1.716,1.307C84.352,47.246,85.446,45.231,85.446,42.746z M63.584,44.632
					c0.383-1.137,1.42-1.886,2.566-1.886c1.144,0,2.176,0.749,2.57,1.868c0.101,0.314-0.059,0.645-0.364,0.758
					c-0.314,0.106-0.651-0.053-0.76-0.371c-0.223-0.638-0.811-1.079-1.445-1.079c-0.638,0-1.221,0.441-1.442,1.099
					c-0.085,0.242-0.314,0.399-0.558,0.399c-0.068,0-0.135-0.018-0.195-0.035C63.648,45.28,63.476,44.932,63.584,44.632z
					 M74.89,40.53c0,1.315-1.067,2.396-2.389,2.396c-1.326,0-2.396-1.081-2.396-2.396c0-1.329,1.07-2.396,2.396-2.396
					C73.823,38.134,74.89,39.201,74.89,40.53z M59.805,42.927c-1.316,0-2.396-1.081-2.396-2.396c0-1.329,1.081-2.396,2.396-2.396
					c1.323,0,2.396,1.073,2.396,2.396C62.201,41.854,61.128,42.927,59.805,42.927z M66.15,49.884c2.258,0,4.357-0.212,6.144-1.314
					c-1.256,2.087-3.533,3.481-6.144,3.481c-2.606,0-4.889-1.397-6.138-3.481C61.797,49.672,63.9,49.884,66.15,49.884z"/>
				<g>
					<path fill="#FFFFFF" d="M90.035,60c-1.89-0.978-7.21-3.36-12.286-2.078c-0.998-1.3-1.375-1.743-1.375-1.743
						s-0.657-0.595-1.467-0.224c-1.001,0.341-1.072,1.217-1.072,1.217c0,4.033-3.167,7.335-7.139,7.587h-1.135
						c-3.972-0.252-7.126-3.555-7.126-7.587c0,0-0.083-0.876-1.08-1.217c-0.807-0.371-1.47,0.224-1.47,0.224
						s-0.375,0.443-1.373,1.743c-5.073-1.283-10.404,1.1-12.288,2.078c16.542,0,23.9,7.8,23.9,7.8S73.433,60,90.035,60z"/>
				</g>
				<path fill="#FFFFFF" d="M100.427,71.453c0,0-0.915-1.681-2.411-1.978v1.706h1.569C99.588,71.181,100.042,71.222,100.427,71.453z
					"/>
				<path fill="#FFFFFF" d="M31.681,71.453c0,0,0.917-1.681,2.411-1.978v1.706h-1.57C32.522,71.181,32.069,71.222,31.681,71.453z"/>
				<g>
					<path fill="#FFFFFF" d="M92.882,71.155h4.282v-9.587c-18.717-2.708-28.049,5.139-30.39,7.258v32.873
						c3.055-2.396,15.825-8.798,30.39-7.238v-7.826h-4.282c-1.292,0-2.314-1.022-2.314-2.309c0-0.5,0.168-0.963,0.444-1.344
						c-1.11-0.167-1.972-1.125-1.972-2.281c0-0.564,0.209-1.072,0.559-1.473c-0.861-0.348-1.47-1.172-1.47-2.145
						c0-1.281,1.038-2.319,2.316-2.319h0.539c-0.262-0.374-0.417-0.823-0.417-1.308C90.568,72.187,91.607,71.155,92.882,71.155z"/>
					<path fill="#FFFFFF" d="M35.084,61.568v9.587h4.279c1.275,0,2.319,1.035,2.319,2.302c0,0.488-0.155,0.94-0.417,1.309h0.54
						c1.279,0,2.315,1.038,2.315,2.318c0,0.974-0.609,1.799-1.464,2.146c0.334,0.399,0.558,0.907,0.558,1.472
						c0,1.157-0.861,2.115-1.979,2.282c0.279,0.381,0.449,0.845,0.449,1.343c0,1.289-1.016,2.31-2.319,2.31h-4.279v7.825
						c14.567-1.561,27.331,4.844,30.391,7.24V68.828C63.47,66.707,53.868,58.86,35.084,61.568z"/>
				</g>
				<g>
					<path fill="#FFFFFF" d="M59.755,56.777c-0.015,0.133-0.026,0.261-0.026,0.395c0,3.531,2.864,6.397,6.396,6.397
						s6.392-2.866,6.392-6.397c0-0.258,0.001-0.096-0.019-0.341c-1.41,0.6-2.87,0.919-4.407,1.049
						c-0.646,0.074-1.303,0.118-1.966,0.118C63.879,57.998,61.729,57.564,59.755,56.777z"/>
				</g>
			</g>
			<path fill="#FFFFFF" d="M114.377,5.783c12.24,0,22.164,9.925,22.164,22.167c0,12.235-9.923,22.159-22.164,22.159
				c-12.241,0-22.163-9.924-22.163-22.159C92.215,15.709,102.137,5.783,114.377,5.783z"/>
		</g>
	</g>
</g>
</svg>
