<?xml version="1.0" encoding="utf-8"?>
<!-- Generator: Adobe Illustrator 16.0.0, SVG Export Plug-In . SVG Version: 6.00 Build 0)  -->
<!DOCTYPE svg PUBLIC "-//W3C//DTD SVG 1.1//EN" "http://www.w3.org/Graphics/SVG/1.1/DTD/svg11.dtd">
<svg version="1.1" id="Isolation_Mode" xmlns="http://www.w3.org/2000/svg" xmlns:xlink="http://www.w3.org/1999/xlink" x="0px"
	 y="0px" width="578.959px" height="130px" viewBox="291.958 -17.586 578.959 130"
	 enable-background="new 291.958 -17.586 578.959 130" xml:space="preserve">
<g>
	<g>
		<g>
			<g>
				<g>
					<path fill="#FFFFFF" d="M834.242,51.346c1.209,6.218,1.139,10.61,1.129,11.161l-0.02,0.248v0.517v28.567h-11.047v3.94
						l-1.624-0.186c-1.421-0.15-2.847-0.229-4.242-0.229c-10.679,0-21.22,4.398-24.577,7.025l-0.66,0.512l-0.955,0.74l-0.949-0.74
						l-0.662-0.512c-3.36-2.627-13.902-7.025-24.579-7.025c-1.394,0-2.821,0.076-4.24,0.229l-1.76,0.186v-3.94h-11.038V63.271v-0.41
						l-0.023-0.406c-0.006-0.104-0.354-11.107,4.945-23.81c6.811-16.328,19.669-28.178,38.242-35.292
						c10.279,3.932,18.806,9.331,25.529,16.125c1.506-4.009,4.026-7.535,7.275-10.213c-8.695-8.295-19.719-14.713-32.805-19.073
						c-13.27,4.423-24.434,10.957-33.186,19.43c-7.101,6.868-12.652,15.023-16.5,24.25c-6.561,15.72-5.891,29.146-5.883,29.278
						l0.002,0.063v0.061v46.748h111.131v-46.75V63.21l0.004-0.062c0.002-0.078,0.221-4.814-0.937-11.884
						c-2.056,0.565-4.208,0.898-6.44,0.898C838.253,52.165,836.207,51.866,834.242,51.346z"/>
				</g>
				<path fill="#FFFFFF" d="M818.813,72.188c-0.704,0-1.276,0.563-1.276,1.27c0,0.699,0.572,1.271,1.276,1.271h6.718
					c0.696,0,1.266-0.57,1.266-1.271c0-0.705-0.569-1.27-1.266-1.27H818.813z"/>
				<path fill="#FFFFFF" d="M826.815,80.705c0-0.699-0.569-1.266-1.269-1.266h-8.262c-0.701,0-1.275,0.563-1.275,1.266
					c0,0.699,0.574,1.271,1.275,1.271h8.262C826.246,81.975,826.815,81.402,826.815,80.705z"/>
				<path fill="#FFFFFF" d="M825.546,83.064h-6.733c-0.704,0-1.276,0.563-1.276,1.264c0,0.709,0.557,1.273,1.276,1.273h6.733
					c0.699,0,1.269-0.574,1.269-1.273C826.815,83.63,826.246,83.064,825.546,83.064z"/>
				<path fill="#FFFFFF" d="M826.805,77.085c0-0.701-0.566-1.282-1.271-1.282h-9.164c-0.707,0-1.277,0.581-1.277,1.282
					s0.57,1.269,1.277,1.269h9.164C826.239,78.352,826.805,77.787,826.805,77.085z"/>
				<path fill="#FFFFFF" d="M757.312,73.457c0,0.699,0.566,1.271,1.266,1.271h6.715c0.703,0,1.281-0.57,1.281-1.271
					c0-0.705-0.578-1.27-1.281-1.27h-6.713C757.878,72.188,757.312,72.751,757.312,73.457z"/>
				<path fill="#FFFFFF" d="M757.304,77.085c0,0.701,0.566,1.269,1.262,1.269h9.172c0.706,0,1.284-0.564,1.284-1.269
					c0-0.701-0.578-1.282-1.284-1.282h-9.172C757.867,75.803,757.304,76.384,757.304,77.085z"/>
				<path fill="#FFFFFF" d="M757.298,80.705c0,0.697,0.564,1.271,1.263,1.271h8.261c0.707,0,1.282-0.572,1.282-1.271
					c0-0.701-0.575-1.266-1.282-1.266h-8.261C757.865,79.439,757.298,80.005,757.298,80.705z"/>
				<path fill="#FFFFFF" d="M757.298,84.328c0,0.699,0.564,1.273,1.263,1.273h6.733c0.713,0,1.279-0.564,1.279-1.273
					c0-0.697-0.578-1.264-1.279-1.264h-6.733C757.865,83.064,757.298,83.63,757.298,84.328z"/>
				<path fill="#FFFFFF" d="M803.542,31.692l-0.045,0.647c-0.004,0.071-0.328,6.008,1.99,8.345c0.264-0.974,0.875-2.434,2.262-3.469
					c-1.609-7.145-7.977-12.477-15.6-12.477c-7.636,0-14.003,5.363-15.596,12.522c0.515,0.234,2.001,1.087,2.337,3.303
					c0.979-0.662,2.601-2.549,1.937-7.584l-0.193-1.511l1.188,0.965c0.074,0.053,6.953,5.466,16.815,2.104
					c-0.798-0.439-1.812-1.073-2.57-1.786l-1.131-1.06L803.542,31.692L803.542,31.692z"/>
				<path fill="#FFFFFF" d="M809.441,35.983c0.027-0.359,0.051-0.716,0.051-1.084c0-9.495-7.695-17.188-17.191-17.188
					c-9.497,0-17.202,7.693-17.202,17.188c0,0.368,0.04,0.725,0.054,1.084c2.328-7.251,9.12-12.883,17.148-12.883
					C800.326,23.1,807.119,28.732,809.441,35.983z"/>
				<path fill="#FFFFFF" d="M811.446,42.746c0-2.497-1.093-4.525-2.442-4.525c-0.351,0-0.695,0.159-1.002,0.415
					c0-0.009,0-0.021,0-0.037c-1.32,1.344-1.479,3.192-1.479,3.209l-0.067,0.96l-0.84-0.471c-3.171-1.769-3.377-7.44-3.35-9.388
					h-3.973c1.062,0.687,2.098,1.155,2.111,1.163l1.283,0.591l-1.307,0.532c-8.805,3.588-15.623,0.479-18.205-1.067
					c0.443,6.899-3.5,7.919-3.678,7.968l-0.748,0.173v-0.766c0-1.841-0.908-2.665-1.418-2.99c0,0.015-0.006,0.034-0.006,0.043
					c-0.283-0.208-0.58-0.335-0.902-0.335c-1.35,0-2.438,2.027-2.438,4.521c0,2.481,1.088,4.499,2.438,4.499
					c0.641,0,1.215-0.459,1.654-1.196c2.186,6.237,8.1,10.707,15.08,10.707c7.023,0,12.975-4.523,15.135-10.817
					c0.438,0.813,1.051,1.307,1.717,1.307C810.352,47.246,811.446,45.231,811.446,42.746z M789.583,44.632
					c0.383-1.137,1.42-1.886,2.566-1.886c1.145,0,2.176,0.749,2.57,1.868c0.101,0.314-0.059,0.645-0.364,0.758
					c-0.313,0.106-0.651-0.053-0.76-0.371c-0.224-0.638-0.812-1.079-1.445-1.079c-0.638,0-1.221,0.441-1.442,1.099
					c-0.084,0.242-0.313,0.399-0.558,0.399c-0.067,0-0.135-0.018-0.194-0.035C789.648,45.28,789.476,44.932,789.583,44.632z
					 M800.89,40.53c0,1.315-1.066,2.396-2.389,2.396c-1.326,0-2.396-1.081-2.396-2.396c0-1.329,1.07-2.396,2.396-2.396
					C799.824,38.134,800.89,39.201,800.89,40.53z M785.805,42.927c-1.315,0-2.396-1.081-2.396-2.396c0-1.329,1.08-2.396,2.396-2.396
					c1.323,0,2.396,1.073,2.396,2.396C788.201,41.854,787.128,42.927,785.805,42.927z M792.15,49.884
					c2.258,0,4.357-0.212,6.145-1.314c-1.256,2.087-3.533,3.481-6.145,3.481c-2.605,0-4.889-1.397-6.138-3.481
					C787.796,49.672,789.9,49.884,792.15,49.884z"/>
				<g>
					<path fill="#FFFFFF" d="M816.035,60c-1.89-0.978-7.209-3.36-12.285-2.078c-0.998-1.3-1.375-1.743-1.375-1.743
						s-0.658-0.595-1.467-0.224c-1.002,0.341-1.072,1.217-1.072,1.217c0,4.033-3.168,7.335-7.14,7.587h-1.135
						c-3.972-0.252-7.126-3.555-7.126-7.587c0,0-0.083-0.876-1.08-1.217c-0.807-0.371-1.471,0.224-1.471,0.224
						s-0.375,0.443-1.372,1.743c-5.073-1.283-10.404,1.1-12.288,2.078c16.542,0,23.9,7.8,23.9,7.8S799.433,60,816.035,60z"/>
				</g>
				<path fill="#FFFFFF" d="M826.427,71.453c0,0-0.915-1.682-2.411-1.979v1.707h1.569C825.587,71.182,826.042,71.223,826.427,71.453
					z"/>
				<path fill="#FFFFFF" d="M757.681,71.453c0,0,0.917-1.682,2.41-1.979v1.707h-1.569C758.522,71.182,758.069,71.223,757.681,71.453
					z"/>
				<g>
					<path fill="#FFFFFF" d="M818.882,71.154h4.281v-9.586c-18.717-2.708-28.049,5.139-30.39,7.258v32.873
						c3.056-2.396,15.825-8.799,30.39-7.238v-7.826h-4.281c-1.293,0-2.314-1.021-2.314-2.309c0-0.5,0.168-0.963,0.444-1.344
						c-1.11-0.168-1.972-1.125-1.972-2.281c0-0.564,0.209-1.072,0.559-1.473c-0.861-0.349-1.471-1.172-1.471-2.146
						c0-1.28,1.039-2.319,2.316-2.319h0.539c-0.262-0.373-0.417-0.822-0.417-1.308C816.568,72.188,817.607,71.154,818.882,71.154z"
						/>
					<path fill="#FFFFFF" d="M761.083,61.568v9.586h4.279c1.275,0,2.319,1.035,2.319,2.303c0,0.488-0.155,0.939-0.417,1.309h0.54
						c1.278,0,2.315,1.039,2.315,2.318c0,0.975-0.609,1.799-1.465,2.146c0.334,0.398,0.559,0.906,0.559,1.472
						c0,1.157-0.861,2.114-1.979,2.282c0.279,0.381,0.449,0.845,0.449,1.343c0,1.289-1.017,2.31-2.319,2.31h-4.279v7.825
						c14.567-1.562,27.332,4.845,30.392,7.24V68.828C789.47,66.707,779.869,58.86,761.083,61.568z"/>
				</g>
				<g>
					<path fill="#FFFFFF" d="M785.755,56.777c-0.016,0.133-0.026,0.261-0.026,0.395c0,3.531,2.864,6.396,6.396,6.396
						c3.533,0,6.393-2.865,6.393-6.396c0-0.258,0.001-0.096-0.02-0.341c-1.41,0.6-2.869,0.919-4.406,1.049
						c-0.646,0.074-1.303,0.118-1.967,0.118C789.878,57.998,787.729,57.564,785.755,56.777z"/>
				</g>
			</g>
			<path fill="#FFFFFF" d="M840.376,5.783c12.24,0,22.164,9.925,22.164,22.167c0,12.235-9.922,22.159-22.164,22.159
				c-12.24,0-22.162-9.924-22.162-22.159C818.214,15.709,828.137,5.783,840.376,5.783z"/>
		</g>
	</g>
	<g id="_1530766352">
		<polygon fill="#004B79" points="493.77,24.67 484.139,24.67 484.139,34.352 493.77,34.352 		"/>
		<path fill="#004B79" d="M575.228,62.871c0,3.143-0.258,5.231-0.699,6.283c-0.967,1.913-2.981,2.869-6.221,2.869h-5.269h-3.05
			h-5.707v-2.518c0-5.843-1.839-10.652-5.427-14.574c-3.59-3.918-8.323-5.84-14.194-5.84c-5.856,0-10.59,1.921-14.268,5.67
			c-3.591,3.746-5.43,8.544-5.43,14.392c0,0.957,0,1.913,0.091,2.869h-6.573h-2.886h-13.932c1.406-1.658,2.105-4.968,2.105-10.114
			V42.375h-9.728V62.43c0,3.059-0.351,5.322-1.044,6.626c-1.058,2.012-2.981,2.968-5.873,2.968h-7.017h-2.083h-14.998h-2.263h-5.537
			c0-21.975-11.201-38.374-30.208-42.204l-1.228,9.336c12.695,2.606,21.718,15.513,21.718,30.168c0,0.875,0,1.743-0.085,2.699
			h-11.561c1.485-3.57,2.275-6.629,2.275-9.059c0-10.472-7.008-16.925-17.253-16.925c-10.245,0-17.341,6.454-17.341,16.925
			c0,2.523,0.795,5.488,2.286,9.059h-10.168h-1.918h-13.68h-3.749h-11.048c0.345-1.824,0.518-3.57,0.518-5.395V25.723h-9.883v39.766
			c0,12.293-7.362,21.621-17.694,21.621c-10.686,0-17.867-9.583-17.867-21.621v-7.413h-9.9v8.554
			c0,16.39,12.522,29.814,27.767,29.814c9.631,0,18.648-5.401,23.639-14.48h14.469h3.749h13.68h1.918h67.103h2.263h14.998h2.083
			h35.487h2.886h10.514c3.769,5.062,8.936,7.588,15.666,7.588c6.85,0,12.09-2.526,15.864-7.588h9.464h3.05h7.285
			c9.804,0,14.71-5.229,14.71-15.781V25.723h-9.807V62.871z M408.886,72.293L408.886,72.293c-4.725,0-8.055-4.016-8.055-9.328
			c0-5.243,2.895-9.165,8.055-9.165c4.818,0,8.052,3.661,8.052,9.165C416.938,68.189,413.525,72.293,408.886,72.293z M541.93,77.17
			L541.93,77.17c-1.661,2.182-4.023,3.316-6.997,3.316c-6.046,0-9.905-5.141-9.905-11.431c0-3.042,0.795-5.664,2.283-7.667
			c1.754-2.357,4.119-3.492,7.099-3.492c3.053,0,5.607,1.22,7.447,3.582c1.567,2.185,2.359,4.878,2.359,7.937
			C544.216,72.55,543.424,75.167,541.93,77.17z"/>
		<polygon fill="#004B79" points="594.054,81.963 603.781,81.963 603.781,25.629 594.054,25.629 		"/>
		<path fill="#FFFFFF" d="M643.448,75.69c0,8.366-4.015,12.387-12.16,12.387v8.366c15.055,0,21.978-6.541,21.978-22.238v-31.83
			h-9.817V75.69z"/>
		<polygon fill="#FFFFFF" points="662.283,81.963 672.004,81.963 672.004,25.629 662.283,25.629 		"/>
		<path fill="#FFFFFF" d="M704.143,43.768c-2.274-0.781-4.018-1.134-5.245-1.214c-1.233-0.085-4.294-0.178-9.109-0.178v8.896
			c3.149,0,6.123,0.178,8.849,0.784c8.845,1.921,13.31,8.547,13.31,19.969h-31.698v9.939h41.583v-9.939
			C721.752,57.116,715.885,47.697,704.143,43.768z"/>
	</g>
</g>
</svg>
