<svg xmlns="http://www.w3.org/2000/svg" width="870.917" height="119.827" viewBox="10.591 -9.808 870.917 119.827"><path fill="#FFF" d="M180.89 28.982c6.348-1.059 14.461-1.646 23.045-1.646 14.815 0 25.044 3.058 32.334 9.171 7.645 6.234 12.348 15.637 12.348 29.156 0 14.112-4.823 24.694-12.348 31.512-7.879 7.176-20.455 10.82-35.862 10.82-8.466 0-14.813-.474-19.517-1.06V28.982zm14.464 67.14c1.997.349 5.056.349 7.995.349 18.815.118 29.983-10.227 29.983-30.333.117-17.518-9.992-27.516-28.103-27.516-4.586 0-7.879.352-9.876.823v56.677zm97.467 11.054l-.938-6.354h-.349c-3.53 4.47-9.528 7.646-16.935 7.646-11.522 0-17.99-8.349-17.99-17.05 0-14.462 12.816-21.75 33.984-21.635v-.941c0-3.762-1.53-9.995-11.645-9.995-5.641 0-11.521 1.766-15.4 4.235l-2.824-9.406c4.236-2.588 11.641-5.053 20.697-5.053 18.343 0 23.635 11.637 23.635 24.1V93.42c0 5.174.233 10.232.822 13.759H292.82v-.003zm-1.877-27.989c-10.235-.231-19.991 2.002-19.991 10.697 0 5.646 3.646 8.236 8.23 8.236 5.761 0 9.997-3.764 11.286-7.881.351-1.053.475-2.232.475-3.173v-7.879zm29.386-10.816c0-7.761-.117-13.286-.466-18.46h12.58l.47 10.934h.471c2.822-8.111 9.524-12.229 15.638-12.229 1.411 0 2.233.117 3.408.352v13.641c-1.175-.238-2.47-.473-4.231-.473-6.938 0-11.642 4.472-12.936 10.937-.237 1.297-.471 2.822-.471 4.47v29.629H320.33V68.371z"/><path fill="#87BE3F" d="M402.989 84.715l-6.819 22.461h-14.935l25.396-79.252h18.464l25.75 79.252H435.32l-7.17-22.461h-25.161zm22.69-10.932l-6.23-19.52c-1.526-4.826-2.82-10.232-3.998-14.818h-.237c-1.175 4.586-2.352 10.116-3.765 14.818l-6.11 19.52h20.34zm35.035-50.091h14.579v83.484h-14.579V23.692zm122.044 51.147c-.47-10.232-1.06-22.574-.94-33.275h-.35a424.692 424.692 0 0 1-9.409 30.338l-11.523 34.336h-11.17l-10.578-33.869c-3.058-10.11-5.882-20.926-7.999-30.805h-.232c-.354 10.349-.826 22.928-1.412 33.749l-1.764 31.866h-13.524l5.292-79.255h19.05l10.346 31.866a397.424 397.424 0 0 1 7.292 27.518h.353c2.116-8.584 4.822-18.343 7.877-27.631l10.937-31.752h18.813l4.583 79.255h-14.105l-1.537-32.341zm62.434 32.337l-.946-6.354h-.353c-3.524 4.47-9.522 7.646-16.93 7.646-11.523 0-17.99-8.349-17.99-17.05 0-14.462 12.815-21.75 33.981-21.635v-.941c0-3.762-1.527-9.995-11.638-9.995-5.645 0-11.526 1.766-15.405 4.235l-2.824-9.406c4.234-2.588 11.646-5.053 20.697-5.053 18.345 0 23.63 11.637 23.63 24.1V93.42c0 5.174.238 10.232.829 13.759h-13.052v-.003zm-1.886-27.989c-10.233-.231-19.989 2.002-19.989 10.697 0 5.646 3.643 8.236 8.229 8.236 5.761 0 9.994-3.764 11.289-7.881.353-1.053.472-2.232.472-3.173v-7.879zm29.393-12.225c0-6.586-.125-12.108-.475-17.051h12.7l.706 8.584h.353c2.468-4.47 8.698-9.879 18.222-9.879 9.996 0 20.344 6.469 20.344 24.579v33.976h-14.463V74.839c0-8.229-3.059-14.463-10.934-14.463-5.762 0-9.758 4.115-11.287 8.466-.469 1.297-.588 3.061-.588 4.705v33.632h-14.578V66.962zm67.252-43.27h14.576v34.096h.234a19.456 19.456 0 0 1 7.178-6.588c2.818-1.639 6.229-2.584 9.877-2.584 9.76 0 19.986 6.469 19.986 24.812v33.748H777.34V75.072c0-8.349-3.058-14.578-11.052-14.578-5.644 0-9.641 3.769-11.172 8.11-.467 1.179-.586 2.706-.586 4.353v34.222h-14.578l-.001-83.487zm99.468 83.484l-.939-6.354h-.354c-3.522 4.47-9.524 7.646-16.934 7.646-11.518 0-17.984-8.349-17.984-17.05 0-14.462 12.815-21.75 33.982-21.635v-.941c0-3.762-1.529-9.995-11.64-9.995-5.644 0-11.522 1.766-15.405 4.235l-2.822-9.406c4.233-2.588 11.643-5.053 20.695-5.053 18.34 0 23.634 11.637 23.634 24.1V93.42c0 5.174.235 10.232.825 13.759h-13.058v-.003zm-1.882-27.989c-10.23-.231-19.986 2.002-19.986 10.697 0 5.646 3.641 8.236 8.23 8.236 5.756 0 9.995-3.764 11.281-7.881.356-1.053.475-2.232.475-3.173v-7.879zm29.39-55.495h14.58v83.484h-14.58V23.692z"/><g fill="#FFF"><path d="M108.242 51.346c1.208 6.218 1.139 10.611 1.128 11.161l-.019.249V91.84H98.304v3.94l-1.624-.185a40.28 40.28 0 0 0-4.242-.228c-10.678 0-21.219 4.398-24.577 7.026l-.66.511-.956.741-.949-.741-.661-.511c-3.361-2.628-13.903-7.026-24.58-7.026-1.394 0-2.821.076-4.24.228l-1.76.185v-3.94H23.017V62.861l-.023-.407c-.006-.102-.354-11.107 4.945-23.809 6.81-16.328 19.669-28.178 38.242-35.292 10.28 3.932 18.806 9.331 25.53 16.125a24.322 24.322 0 0 1 7.275-10.213C90.291.97 79.267-5.448 66.181-9.808 52.912-5.385 41.748 1.149 32.995 9.622c-7.1 6.868-12.652 15.023-16.499 24.25-6.561 15.72-5.891 29.146-5.883 29.278l.001.062v46.808h111.132V63.211l.004-.062c.002-.077.22-4.814-.937-11.884-2.055.565-4.208.898-6.44.898a23.806 23.806 0 0 1-6.131-.817z"/><path d="M92.813 72.187a1.27 1.27 0 0 0-1.276 1.27c0 .699.572 1.27 1.276 1.27h6.718a1.271 1.271 0 0 0 0-2.54h-6.718zm8.002 8.517c0-.699-.569-1.265-1.268-1.265h-8.263c-.7 0-1.274.565-1.274 1.265s.574 1.271 1.274 1.271h8.263a1.273 1.273 0 0 0 1.268-1.271zm-1.268 2.36h-6.734a1.27 1.27 0 1 0 0 2.538h6.734c.699 0 1.268-.575 1.268-1.274 0-.698-.569-1.264-1.268-1.264zm1.258-5.979c0-.701-.566-1.282-1.27-1.282H90.37c-.706 0-1.276.581-1.276 1.282 0 .702.57 1.268 1.276 1.268h9.165a1.267 1.267 0 0 0 1.27-1.268zm-69.493-3.628c0 .699.566 1.27 1.265 1.27h6.716c.703 0 1.28-.57 1.28-1.27 0-.705-.578-1.27-1.28-1.27H32.58c-.702 0-1.268.565-1.268 1.27zm-.008 3.628c0 .702.566 1.268 1.262 1.268h9.172c.706 0 1.284-.565 1.284-1.268a1.29 1.29 0 0 0-1.284-1.282h-9.172c-.7-.001-1.262.581-1.262 1.282zm-.006 3.619c0 .699.565 1.271 1.263 1.271h8.261c.707 0 1.282-.571 1.282-1.271s-.575-1.265-1.282-1.265h-8.261c-.697 0-1.263.566-1.263 1.265zm0 3.624c0 .699.565 1.274 1.263 1.274h6.733a1.27 1.27 0 0 0 1.28-1.274c0-.698-.578-1.264-1.28-1.264h-6.733c-.697 0-1.263.566-1.263 1.264zm46.245-52.636l-.045.647c-.004.071-.329 6.008 1.99 8.345.264-.974.875-2.434 2.262-3.469-1.61-7.145-7.977-12.477-15.6-12.477-7.636 0-14.003 5.363-15.596 12.522.515.234 2.001 1.087 2.337 3.303.98-.662 2.6-2.549 1.936-7.584l-.192-1.511 1.187.965c.074.053 6.953 5.466 16.815 2.104-.797-.439-1.812-1.073-2.57-1.786l-1.131-1.06h8.607z"/><path d="M83.441 35.983c.027-.359.05-.716.05-1.084 0-9.495-7.695-17.188-17.19-17.188-9.498 0-17.203 7.693-17.203 17.188 0 .368.04.725.054 1.084C51.48 28.732 58.272 23.1 66.3 23.1c8.026 0 14.819 5.632 17.141 12.883z"/><path d="M85.446 42.746c0-2.497-1.093-4.525-2.443-4.525-.35 0-.695.159-1.002.415v-.037c-1.32 1.344-1.479 3.192-1.479 3.209l-.067.96-.84-.471c-3.171-1.769-3.377-7.44-3.35-9.388h-3.972c1.061.687 2.097 1.155 2.111 1.163l1.283.591-1.306.532c-8.806 3.588-15.623.479-18.206-1.067.443 6.899-3.5 7.919-3.678 7.968l-.748.173v-.766c0-1.841-.907-2.665-1.418-2.99 0 .015-.006.034-.006.043-.282-.208-.58-.335-.902-.335-1.35 0-2.437 2.027-2.437 4.521 0 2.481 1.087 4.499 2.437 4.499.641 0 1.215-.459 1.654-1.196 2.186 6.237 8.1 10.707 15.081 10.707 7.023 0 12.975-4.523 15.135-10.817.438.813 1.051 1.307 1.716 1.307 1.343.004 2.437-2.011 2.437-4.496zm-21.862 1.886c.383-1.137 1.42-1.886 2.566-1.886 1.144 0 2.176.749 2.57 1.868a.605.605 0 0 1-.364.758.595.595 0 0 1-.76-.371c-.223-.638-.811-1.079-1.445-1.079-.638 0-1.221.441-1.442 1.099a.596.596 0 0 1-.558.399.598.598 0 0 1-.567-.788zM74.89 40.53a2.396 2.396 0 0 1-2.389 2.396 2.4 2.4 0 0 1-2.396-2.396 2.39 2.39 0 0 1 2.396-2.396 2.387 2.387 0 0 1 2.389 2.396zm-15.085 2.397a2.406 2.406 0 0 1-2.396-2.396 2.396 2.396 0 1 1 2.396 2.396zm6.345 6.957c2.258 0 4.357-.212 6.144-1.314a7.157 7.157 0 0 1-12.282 0c1.785 1.102 3.888 1.314 6.138 1.314z"/><path d="M90.035 60c-1.89-.978-7.21-3.36-12.286-2.078-.998-1.3-1.375-1.743-1.375-1.743s-.657-.595-1.467-.224c-1.001.341-1.072 1.217-1.072 1.217 0 4.033-3.167 7.336-7.139 7.587h-1.135c-3.972-.251-7.126-3.554-7.126-7.587 0 0-.083-.876-1.08-1.217-.807-.371-1.47.224-1.47.224s-.375.443-1.373 1.743c-5.073-1.283-10.404 1.1-12.288 2.078 16.542 0 23.9 7.8 23.9 7.8S73.433 60 90.035 60zm10.392 11.453s-.915-1.681-2.411-1.978v1.706h1.569c.003 0 .457.041.842.272zm-68.746 0s.917-1.681 2.411-1.978v1.706h-1.57s-.453.041-.841.272z"/><path d="M92.882 71.155h4.282v-9.587c-18.717-2.708-28.049 5.138-30.39 7.258v32.873c3.055-2.396 15.825-8.798 30.39-7.239v-7.826h-4.282a2.295 2.295 0 0 1-1.87-3.652A2.318 2.318 0 0 1 89.04 80.7c0-.564.209-1.072.559-1.472-.861-.347-1.47-1.172-1.47-2.145a2.318 2.318 0 0 1 2.316-2.319h.539a2.27 2.27 0 0 1-.417-1.308 2.312 2.312 0 0 1 2.315-2.301zm-57.798-9.587v9.587h4.279c1.275 0 2.319 1.035 2.319 2.302 0 .488-.155.94-.417 1.308h.54a2.317 2.317 0 0 1 2.315 2.319c0 .973-.609 1.798-1.464 2.145.334.399.558.907.558 1.472a2.317 2.317 0 0 1-1.979 2.282 2.291 2.291 0 0 1-1.87 3.652h-4.279v7.826c14.567-1.561 27.331 4.843 30.391 7.239V68.827c-2.007-2.121-11.609-9.967-30.393-7.259zm24.671-4.791a3.477 3.477 0 0 0-.026.395c0 3.53 2.864 6.397 6.396 6.397s6.392-2.867 6.392-6.397c0-.258.001-.096-.019-.341-1.41.6-2.87.919-4.407 1.049a17.28 17.28 0 0 1-1.966.118c-2.246 0-4.396-.434-6.37-1.221zm54.622-50.994c12.24 0 22.164 9.925 22.164 22.167 0 12.235-9.923 22.159-22.164 22.159S92.214 40.185 92.214 27.95c.001-12.241 9.923-22.167 22.163-22.167z"/></g></svg>