<?xml version="1.0" encoding="utf-8"?>
<!-- Generator: Adobe Illustrator 16.0.0, SVG Export Plug-In . SVG Version: 6.00 Build 0)  -->
<!DOCTYPE svg PUBLIC "-//W3C//DTD SVG 1.1//EN" "http://www.w3.org/Graphics/SVG/1.1/DTD/svg11.dtd">
<svg version="1.1" id="Layer_1" xmlns="http://www.w3.org/2000/svg" xmlns:xlink="http://www.w3.org/1999/xlink" x="0px" y="0px"
	 width="576px" height="576px" viewBox="224 96 576 576" enable-background="new 224 96 576 576" xml:space="preserve">
<path fill="#FFFFFF" d="M288,96c-35.2,0-64,28.8-64,64v448c0,35.199,28.8,64,64,64h448c35.2,0,64-28.801,64-64V192l-96-96H288z
	 M384,128h256v160H384V128z M544,160v96h64v-96H544z M352,384h320c19.2,0,32,12.8,32,32v160c0,19.199-12.8,32-32,32H352
	c-19.2,0-32-12.801-32-32V416C320,396.8,332.8,384,352,384z"/>
</svg>
