<?xml version="1.0" encoding="utf-8"?>
<!-- Generator: Adobe Illustrator 16.0.0, SVG Export Plug-In . SVG Version: 6.00 Build 0)  -->
<!DOCTYPE svg PUBLIC "-//W3C//DTD SVG 1.1//EN" "http://www.w3.org/Graphics/SVG/1.1/DTD/svg11.dtd">
<svg version="1.1" id="Layer_1" xmlns="http://www.w3.org/2000/svg" xmlns:xlink="http://www.w3.org/1999/xlink" x="0px" y="0px"
	 width="390.26px" height="390.25px" viewBox="0 0 390.26 390.25" enable-background="new 0 0 390.26 390.25" xml:space="preserve">
<g>
	<g>
		<g>
			<g>
				<g>
					<g>
						<defs>
							<rect id="SVGID_1_" y="0" width="390.26" height="390.25"/>
						</defs>
						<clipPath id="SVGID_2_">
							<use xlink:href="#SVGID_1_"  overflow="visible"/>
						</clipPath>
						<path clip-path="url(#SVGID_2_)" fill="#FC861D" d="M387.335,77.025l-74.2-74.1c-3.899-3.9-10.2-3.9-14.099,0l-62.901,62.8
							l-195,194.604c-1.4,1.195-2.4,2.695-3,4.396l-37.599,112.3c-1.801,5.199,1.1,10.899,6.299,12.699c2.1,0.7,4.301,0.7,6.301,0
							l112.4-37.604c1.699-0.6,3.199-1.6,4.399-3l194.602-194.995l62.799-63C391.235,87.225,391.235,80.925,387.335,77.025
							 M25.835,364.425l26.1-78l51.9,51.896L25.835,364.425z M122.335,328.425l-60.5-60.5l181.3-181l60.2,60.2L122.335,328.425z
							 M317.435,133.025l-60.1-60.195l48.8-48.7l60,60L317.435,133.025z"/>
					</g>
				</g>
			</g>
		</g>
	</g>
</g>
</svg>
