<?xml version="1.0" encoding="utf-8"?>
<!-- Generator: Adobe Illustrator 16.0.0, SVG Export Plug-In . SVG Version: 6.00 Build 0)  -->
<!DOCTYPE svg PUBLIC "-//W3C//DTD SVG 1.1//EN" "http://www.w3.org/Graphics/SVG/1.1/DTD/svg11.dtd">
<svg version="1.1" id="Capa_1" xmlns="http://www.w3.org/2000/svg" xmlns:xlink="http://www.w3.org/1999/xlink" x="0px" y="0px"
	 width="768px" height="768px" viewBox="128 0 768 768" enable-background="new 128 0 768 768" xml:space="preserve">
<g>
	<circle fill="#EAEAEA" cx="512" cy="384" r="384"/>
	<g>
		<path fill="#2DBBAF" d="M482.249,180.584l166.745,166.054c6.228,6.919,9.688,14.529,9.688,23.524
			c0,8.994-3.46,16.605-9.688,22.832L482.249,559.74c-6.228,6.227-14.53,9.687-23.524,9.687c-8.995,0-16.605-3.46-22.833-9.687
			l-19.373-19.373c-6.227-6.228-9.687-13.838-9.687-22.833c0-8.994,3.459-16.604,9.687-22.832l123.848-124.54L416.519,245.621
			c-6.227-6.227-9.687-13.838-9.687-22.832c0-8.995,3.459-16.605,9.687-23.524l19.373-19.373c6.228-6.227,13.838-9.687,22.833-9.687
			C468.411,170.898,476.021,174.357,482.249,180.584z"/>
	</g>
</g>
</svg>
