<?xml version="1.0" encoding="utf-8"?>
<!-- Generator: Adobe Illustrator 16.0.0, SVG Export Plug-In . SVG Version: 6.00 Build 0)  -->
<!DOCTYPE svg PUBLIC "-//W3C//DTD SVG 1.1//EN" "http://www.w3.org/Graphics/SVG/1.1/DTD/svg11.dtd">
<svg version="1.1" id="Capa_1" xmlns="http://www.w3.org/2000/svg" xmlns:xlink="http://www.w3.org/1999/xlink" x="0px" y="0px"
	 width="785.96px" height="768px" viewBox="120.11 0 785.96 768" enable-background="new 120.11 0 785.96 768" xml:space="preserve"
	>
<g>
	<circle fill="#EAEAEA" cx="512" cy="384" r="384"/>
	<g>
		<path fill="#2DBBAF" d="M541.751,559.74L375.005,393.686c-6.227-6.918-9.687-14.529-9.687-23.523
			c0-8.995,3.459-16.605,9.687-22.833l166.746-166.745c6.228-6.228,14.53-9.687,23.524-9.687c8.995,0,16.605,3.459,22.833,9.687
			l19.373,19.372c6.227,6.228,9.687,13.838,9.687,22.833c0,8.994-3.46,16.605-9.687,22.832L483.633,370.162l123.849,124.54
			c6.227,6.228,9.687,13.838,9.687,22.833c0,8.994-3.46,16.604-9.687,23.523l-19.373,19.373c-6.228,6.228-13.838,9.687-22.833,9.687
			C555.589,569.427,547.979,565.967,541.751,559.74z"/>
	</g>
</g>
</svg>
