<?xml version="1.0" encoding="utf-8"?>
<!-- Generator: Adobe Illustrator 16.0.0, SVG Export Plug-In . SVG Version: 6.00 Build 0)  -->
<!DOCTYPE svg PUBLIC "-//W3C//DTD SVG 1.1//EN" "http://www.w3.org/Graphics/SVG/1.1/DTD/svg11.dtd">
<svg version="1.1" id="Isolation_Mode" xmlns="http://www.w3.org/2000/svg" xmlns:xlink="http://www.w3.org/1999/xlink" x="0px"
	 y="0px" width="1024.03px" height="168.359px" viewBox="-143.3 299.777 1024.03 168.359"
	 enable-background="new -143.3 299.777 1024.03 168.359" xml:space="preserve">
<g>
	<g id="Layer_x0020_1">
		<path fill="#A7A6A6" d="M203.656,308.611l218.045-8.747c1.666-0.208,3.124,0,4.79,0.209c3.54,0.624,6.664,2.29,9.163,4.373
			c2.499,2.291,4.165,5.206,4.582,8.33c0.208,1.25,0.208,2.499-0.208,3.749l-22.7,102.671c-1.042,4.373-3.124,8.33-6.248,11.245
			c-3.124,2.708-6.872,4.374-11.662,4.374l-175.144-6.04c-4.79,0-8.747-1.666-11.663-4.373l0,0
			c-3.124-2.916-5.415-6.872-6.248-11.246l-20.201-87.884c0-0.417-0.208-0.625-0.208-1.042c-0.625-4.165,1.458-7.705,4.582-10.413
			c2.916-2.499,7.081-4.165,11.246-4.998C202.198,308.611,203.032,308.611,203.656,308.611z M412.33,313.817l-208.882,7.706
			c-0.417,0-1.042,0.208-1.458,0.208c-2.916,0.625-5.623,1.666-7.706,3.332c-1.666,1.458-2.708,3.332-2.499,5.207
			c0,0.208,0,0.416,0,0.416l18.951,82.054c0.625,3.124,2.083,5.831,4.374,7.705c1.666,1.458,3.957,2.499,6.664,2.499l168.688,6.04
			c2.708,0,4.998-1.042,6.873-2.499c2.083-1.875,3.541-4.582,4.165-7.706l21.243-95.59c0.208-0.625,0.208-1.25,0-1.874
			c-0.209-1.666-1.25-3.332-2.708-4.582c-1.458-1.249-3.332-2.291-5.415-2.707C413.996,313.817,413.163,313.817,412.33,313.817z"/>
		<path fill="#A7A6A6" d="M238.435,331.727l63.935-6.664c0.833,0,1.458,0,2.291,0c1.666,0.209,3.124,1.042,4.165,2.083
			c1.25,1.041,1.874,2.291,2.083,3.748c0,0.625,0,1.25,0,1.666l-10.621,47.483c-0.417,2.082-1.458,3.748-2.916,5.206
			c-1.458,1.25-3.124,2.083-5.415,2.083h-43.942c-2.291,0-3.957-0.833-5.415-2.083l0,0c-1.458-1.249-2.5-3.124-2.916-5.206
			l-9.372-40.61c0-0.208,0-0.417,0-0.417c-0.208-1.874,0.625-3.54,2.083-4.789c1.458-1.042,3.333-1.875,5.207-2.291
			C237.811,331.936,238.227,331.727,238.435,331.727z M297.997,331.519l-59.562,6.248c-0.208,0-0.417,0-0.625,0
			c-1.25,0.208-2.708,0.833-3.541,1.458c-0.833,0.624-1.25,1.457-1.041,2.499v0.208l8.747,37.902
			c0.417,1.458,1.042,2.708,2.083,3.541c0.833,0.625,1.875,1.249,3.124,1.249h41.026c1.25,0,2.291-0.416,3.124-1.249
			c1.042-0.833,1.666-2.083,1.875-3.541l9.788-44.15c0-0.208,0-0.625,0-0.833c-0.208-0.833-0.625-1.458-1.25-2.082
			c-0.625-0.625-1.666-1.042-2.499-1.25C298.83,331.519,298.413,331.519,297.997,331.519z"/>
		<g id="_1849662416">
			<path fill="#A7A6A6" d="M319.655,410.865c-0.417,0.625-0.625,0.833-1.041,1.666l-3.332,5.623c0.625,0.417,1.25,0.625,1.874,1.042
				c0.625,0.416,1.042,0.624,1.666,1.249c-2.083,3.749-3.957,7.289-6.248,11.038c3.124,1.874,5.831,3.54,9.164,5.414l18.535,10.83
				c3.124,1.874,6.248,3.332,9.372,5.206c0.625-0.833,0.625-1.666,1.458-2.707c0.625-0.833,1.874-3.124,2.499-4.165
				c0.417-0.625,0.625-0.625,0.833-1.25c0.625-1.041,0.833-1.874,1.458-2.916c0.625,0.833,2.708,1.458,3.541,2.083
				c2.083-3.749,4.165-7.081,6.456-10.829c1.041,0.416,2.083,1.249,3.124,1.666c0.625,0.208,0.625,0.208,0.833-0.209
				c0.833-1.249,1.667-2.915,2.5-4.373c1.666-2.915,3.332-5.623,4.79-8.538l7.081-12.496c-1.042-0.624-2.916-1.457-3.749-2.29
				l-14.786,25.615l-3.749-2.083l-6.248,11.038l-3.749-2.083l-4.166,7.289l-29.364-17.077c0.625-1.457,3.957-6.456,4.166-7.289
				l-3.541-2.082c1.041-1.874,2.291-3.749,3.332-5.623s1.042-1.458-0.208-2.291C321.321,411.698,320.488,411.281,319.655,410.865z"
				/>
			<path fill="#A7A6A6" d="M330.693,382.958l-2.083,3.749l3.749,2.082l-2.083,3.541l3.541,2.082l23.325-40.401l-3.54-2.083l0,0
				l-0.208,0.208l0,0l-18.743,32.696C333.192,384.208,332.151,383.583,330.693,382.958z"/>
			<path fill="#A7A6A6" d="M364.847,358.384l-19.16,33.113l3.541,2.082l8.539-14.578c0.833,0.209,6.873,3.749,7.497,4.374
				c0.833,0.833,7.706,4.581,9.372,5.414c0-0.208,0.208-0.208-0.625-0.624L366.722,384c-1.666-1.042-1.666-0.209,0.833-4.374
				l-5.623-3.124c-0.625-0.416-1.041-0.624-1.666-1.249l8.33-14.578c-1.041-0.625-1.458-1.041-2.707-1.666
				C365.056,358.592,365.264,358.592,364.847,358.384z"/>
			<path fill="#A7A6A6" d="M374.011,393.163l2.083-3.541c-0.625-0.416-1.25-0.833-1.666-0.833c-1.667-0.833-8.539-4.581-9.372-5.414
				l-8.539,14.578l3.749,2.082l6.456-11.037L374.011,393.163z"/>
			<path fill="#A7A6A6" d="M319.239,386.082c-0.417,0.625-0.417,0.417-1.25,1.666c-0.417,0.625-0.833,1.25-1.041,1.874l3.54,2.083
				c-0.417,1.041-3.332,6.456-3.957,7.497l3.54,2.083l-3.124,5.623c-0.417,0.833-0.625,1.249-0.833,1.874l3.54,2.082
				c1.458-1.874,3.124-5.206,4.374-7.288l-3.541-2.083l4.166-7.289l-3.749-2.083l2.083-3.748
				C321.738,387.332,320.488,386.499,319.239,386.082z"/>
			<path fill="#A7A6A6" d="M319.239,386.082l4.166-7.289l7.289,4.165l1.249-1.666c0.417-0.625,0.625-1.249,1.042-2.082l-9.788-5.623
				c-1.666-0.833-1.25-1.042-2.499,1.041l-4.79,8.122c-0.417,0.833-0.833,1.041-0.208,1.458
				C316.532,384.624,318.614,386.082,319.239,386.082z"/>
			<path fill="#A7A6A6" d="M379.009,401.076c0.625,0,0.208,0.209,0.625-0.416c0,0,0.208-0.417,0.417-0.625
				c0.208-0.833,1.042-1.874,1.458-2.707l-7.289-4.165l-8.539,14.786l3.541,2.082l6.456-11.037
				C376.51,399.41,378.384,400.452,379.009,401.076z"/>
			<path fill="#A7A6A6" d="M364.847,358.176c0.625-1.041,1.666-2.499,1.875-3.541l-7.289-4.165l-2.083,3.541L364.847,358.176z"/>
			<path fill="#A7A6A6" d="M379.009,401.076c0.208,0.833-1.875,2.708-1.666,3.541c0,0.416,2.916,1.666,3.54,2.291
				c0.833,0.624,2.708,1.666,3.749,2.29l-7.081,12.496l7.289-12.704l-3.54-2.082c0.416-0.625,0.416-1.042,0.833-1.666
				c0.417-0.625,0.833-1.25,1.041-1.875c-3.957-2.291-3.749-1.666-3.124-3.124c0,0-0.208,0.625-0.417,0.625
				C379.217,401.285,379.633,401.076,379.009,401.076z"/>
			<path fill="#A7A6A6" d="M353.602,351.928l3.54,2.083l-23.325,40.401l-3.541-2.082l0.208,0.208c0,0,2.291,1.666,3.541,2.083
				l23.325-40.61l7.289,4.165c-6.04,10.413-12.496,21.658-18.535,32.071c-0.208,0.417-0.417,0.625-0.417,1.041l19.16-33.112v-0.208
				l-7.497-4.166l2.083-3.54c-0.625,0.417-1.666,2.707-2.083,3.54l-3.332-1.874C353.602,351.928,353.81,351.928,353.602,351.928z"/>
		</g>
		<path fill="#A7A6A6" d="M501.881,392.121h-12.496l10.413-35.611l-21.242,35.611h-12.912l-2.291-36.236l-8.746,36.236h-12.912
			l14.578-54.354h17.701l2.499,38.111l22.284-38.111h17.701L501.881,392.121z M548.738,392.121h-28.115
			c-3.956,0-6.664-1.041-8.33-3.123c-1.666-2.083-2.082-4.998-1.041-8.955c1.25-4.79,3.332-8.122,6.456-10.205
			c3.124-2.082,7.497-3.124,13.12-3.124h12.287c0.625-1.874,0.417-3.332-0.625-4.165c-1.041-0.833-3.124-1.249-6.247-1.249h-17.702
			l2.707-9.788h21.451c5.414,0,9.371,1.249,11.454,3.748c2.082,2.499,2.499,6.456,1.249,11.454L548.738,392.121z M539.158,382.542
			l1.666-6.04h-11.037c-2.291,0-3.749,0.209-4.374,0.625c-0.833,0.417-1.249,1.25-1.666,2.707c-0.208,1.042-0.208,1.666,0,2.083
			c0.209,0.208,0.625,0.416,1.25,0.416s1.458,0.209,2.499,0.209H539.158z M592.473,392.121h-11.871l6.456-24.157
			c0.625-2.499,0.833-4.165,0.208-4.998c-0.625-0.625-2.082-1.042-4.373-1.042h-7.081l-8.122,29.989h-11.87l10.829-40.401h19.784
			c6.04,0,9.996,1.249,12.079,3.54c1.874,2.291,2.291,6.248,0.833,11.454L592.473,392.121z M635.998,392.121h-12.079l6.456-24.365
			c0.625-2.5,0.625-3.957,0-4.79c-0.416-0.417-0.833-0.625-1.458-0.833c-0.625-0.209-1.666-0.209-2.915-0.209h-7.081l-8.122,29.989
			h-11.871l14.578-54.354h11.871l-3.749,13.953h7.914c6.039,0,9.996,1.249,12.079,3.54c2.082,2.291,2.291,6.248,0.833,11.454
			L635.998,392.121z M681.814,392.121H653.7c-3.957,0-6.665-1.041-8.331-3.123c-1.666-2.083-2.082-4.998-1.041-8.955
			c1.25-4.79,3.332-8.122,6.456-10.205c3.124-2.082,7.497-3.124,13.12-3.124h12.287c0.625-1.874,0.417-3.332-0.625-4.165
			c-1.041-0.833-3.123-1.249-6.247-1.249h-17.702l2.707-9.788h21.451c5.414,0,9.371,1.249,11.454,3.748
			c2.082,2.499,2.499,6.456,1.249,11.454L681.814,392.121z M672.234,382.542l1.666-6.04h-11.037c-2.291,0-3.749,0.209-4.374,0.625
			c-0.833,0.417-1.249,1.25-1.666,2.707c-0.208,1.042-0.208,1.666,0,2.083c0.209,0.208,0.625,0.416,1.25,0.416
			s1.458,0.209,2.499,0.209H672.234z M700.975,392.121h-12.496l14.578-54.354h12.495L700.975,392.121z M729.089,392.121h-10.621
			l2.915-11.037h10.622L729.089,392.121z M767.616,392.121h-14.578c-1.874,0-3.332,0-4.79-0.208
			c-1.457-0.208-2.707-0.416-3.748-0.833c-2.083-0.833-3.749-2.082-5.206-3.748c-0.625-0.833-1.042-1.875-1.458-3.124
			c-0.417-1.25-0.833-2.291-1.042-3.749c-0.208-1.249-0.208-2.707,0-3.957c0-1.249,0.417-2.915,0.833-4.373
			c0.833-2.916,2.083-5.831,3.749-8.539c1.666-2.707,3.749-4.998,6.248-7.08c2.082-1.666,4.581-2.708,7.08-3.541
			s5.623-1.249,9.164-1.249h14.577l-2.707,10.204h-11.662c-2.499,0-4.374,0.209-6.04,0.417c-1.457,0.416-2.707,1.041-3.748,1.874
			c-2.083,1.458-3.54,4.165-4.582,7.914c-0.624,2.082-0.624,3.957-0.416,5.415c0.208,1.457,0.624,3.123,2.082,3.54l2.083,0.833
			c0.625,0.208,1.249,0.208,1.874,0.208s1.666,0,3.124,0h11.662L767.616,392.121z M817.807,371.921
			c-1.666,6.247-4.998,11.454-9.788,15.202c-4.79,3.749-10.413,5.623-16.869,5.623s-11.038-1.874-13.953-5.623
			c-2.916-3.748-3.332-8.746-1.666-15.202c1.666-6.248,4.998-11.246,9.788-15.203c4.79-3.749,10.413-5.623,16.869-5.623
			c6.455,0,11.037,1.874,13.953,5.623C818.848,360.467,819.473,365.673,817.807,371.921z M805.311,371.921
			c0.833-3.332,0.625-6.04-0.416-7.914s-2.916-2.916-5.623-2.916s-4.998,1.042-7.081,2.916c-1.874,1.874-3.54,4.373-4.373,7.914
			c-0.417,1.874-0.625,3.332-0.625,4.581c0,1.25,0.208,2.499,0.833,3.541c1.041,1.874,2.916,2.707,5.623,2.707
			s4.998-1.041,7.081-2.707C802.812,377.96,804.478,375.461,805.311,371.921z M872.994,392.121h-11.87l6.456-24.157
			c0.624-2.499,0.833-4.165,0.208-4.998s-2.083-1.042-4.373-1.042l-4.582,0.209l-8.122,29.988h-12.079l8.122-29.988h-9.996
			l-8.122,29.988h-12.079l10.83-40.401h39.568c5.831,0,9.788,1.249,11.871,3.54c2.082,2.291,2.499,6.248,1.041,11.454
			L872.994,392.121z"/>
		<path fill="#A7A6A6" d="M168.877,351.928l105.17-11.037c1.25-0.209,2.499,0,3.54,0.208c2.708,0.416,4.999,1.666,6.873,3.332
			c1.875,1.666,3.332,3.957,3.541,6.248c0.208,0.833,0,1.874-0.208,2.915l-18.118,47.899c-0.625,3.332-2.291,6.248-4.79,8.538
			c-2.291,2.083-5.207,3.332-8.955,3.332h-72.265c-3.541,0-6.664-1.249-8.955-3.332l0,0c-2.499-2.082-3.957-5.206-4.79-8.538
			l-14.578-36.653c0-0.416-0.208-0.625-0.208-0.833c-0.417-3.124,1.042-5.831,3.541-7.914c2.291-1.874,5.415-3.124,8.539-3.748
			C167.836,352.136,168.252,352.136,168.877,351.928z M266.758,351.512l-98.089,10.412c-0.417,0-0.833,0-1.041,0.209
			c-2.083,0.208-4.374,1.249-5.831,2.499c-1.25,1.041-2.083,2.499-1.875,3.957c0,0.208,0,0.208,0,0.416l13.537,32.28
			c0.625,2.29,1.666,4.373,3.332,5.831c1.25,1.249,3.124,1.874,5.207,1.874h67.684c2.083,0,3.749-0.833,5.207-1.874
			c1.666-1.458,2.707-3.541,3.332-5.831l17.077-42.484c0.208-0.417,0.208-1.042,0-1.458c-0.208-1.25-0.833-2.499-2.083-3.541
			c-1.042-1.041-2.708-1.666-4.166-2.082C268.216,351.512,267.591,351.512,266.758,351.512z"/>
		<path fill="#A7A6A6" d="M528.537,420.862l-1.041,4.165h-17.91l-3.332,12.495h14.578l-1.25,3.957h-14.578l-3.54,12.912h18.118
			l-1.041,4.165h-23.116l9.996-37.486h23.116V420.862z M528.537,440.854h12.912l-1.041,3.957h-12.912L528.537,440.854z
			 M550.196,454.182h16.244l-1.25,4.374h-21.242l9.996-37.486h4.998L550.196,454.182z M586.85,431.483
			c1.666,0,2.915,0.208,4.165,0.833c1.249,0.624,2.082,1.249,2.915,2.291c0.625,1.041,1.042,2.29,1.25,3.748s0,3.124-0.625,4.998
			c-0.208,0.833-0.416,1.25-0.625,1.458c-0.208,0.208-0.624,0.417-1.041,0.417h-17.702c-0.416,1.666-0.624,3.123-0.416,4.373
			c0,1.249,0.416,2.291,0.833,3.124c0.416,0.833,1.249,1.457,2.082,1.874s2.083,0.625,3.332,0.625c1.25,0,2.291-0.208,3.124-0.417
			c0.833-0.208,1.666-0.624,2.499-0.833c0.625-0.416,1.25-0.625,1.666-0.833c0.417-0.208,0.833-0.416,1.25-0.416
			c0.416,0,0.625,0.208,0.833,0.416l0.833,1.666c-0.833,0.625-1.666,1.25-2.499,1.875c-1.041,0.416-1.874,0.833-2.916,1.249
			c-1.041,0.417-2.082,0.625-3.123,0.833c-1.042,0.208-2.083,0.208-2.916,0.208c-1.874,0-3.332-0.208-4.79-0.833
			c-1.458-0.624-2.499-1.457-3.332-2.707c-0.833-1.249-1.25-2.707-1.458-4.373s0-3.749,0.625-6.04
			c0.417-1.874,1.25-3.54,2.291-5.206s2.082-2.916,3.54-4.165c1.458-1.25,2.916-2.083,4.582-2.708
			C583.101,431.899,584.975,431.483,586.85,431.483z M586.017,435.023c-2.291,0-4.165,0.625-5.831,1.874
			c-1.667,1.25-2.916,3.124-3.749,5.415h14.37c0.208-1.041,0.416-2.083,0.416-2.916s-0.208-1.666-0.625-2.29
			c-0.416-0.625-1.041-1.25-1.666-1.458C588.099,435.231,587.058,435.023,586.017,435.023z M616.005,458.556h-2.082
			c-0.417,0-0.833,0-1.041-0.208c-0.209-0.209-0.417-0.417-0.417-0.833l0.208-2.499c-0.833,0.624-1.666,1.249-2.499,1.666
			c-0.833,0.416-1.666,0.833-2.499,1.249c-0.833,0.417-1.666,0.625-2.499,0.833s-1.874,0.208-2.915,0.208
			c-1.042,0-1.875-0.208-2.708-0.416s-1.457-0.625-2.082-1.25c-0.417-0.624-0.833-1.249-1.042-2.29
			c-0.208-0.833,0-1.875,0.209-3.124c0.208-1.042,0.833-2.083,1.666-3.124s2.082-1.874,3.54-2.707s3.332-1.458,5.623-1.875
			c2.291-0.416,4.79-0.625,7.914-0.625l0.624-2.082c0.625-2.083,0.625-3.54,0-4.79c-0.624-1.041-1.666-1.666-3.54-1.666
			c-1.041,0-2.082,0.208-2.915,0.417c-0.833,0.208-1.667,0.624-2.291,1.041c-0.625,0.416-1.25,0.625-1.666,1.041
			c-0.417,0.208-0.833,0.417-1.25,0.417c-0.416,0-0.625,0-0.833-0.209c-0.208-0.208-0.416-0.416-0.416-0.624l-0.417-1.458
			c1.874-1.458,3.749-2.499,5.623-3.124s3.749-1.041,5.831-1.041c1.458,0,2.707,0.208,3.749,0.833
			c1.041,0.416,1.874,1.249,2.291,2.082c0.624,0.833,0.833,1.875,0.833,3.124c0,1.25,0,2.499-0.417,4.165L616.005,458.556z
			 M604.76,455.64c0.833,0,1.666,0,2.29-0.208c0.625-0.208,1.458-0.416,2.083-0.625c0.625-0.208,1.458-0.625,2.082-1.041
			c0.625-0.417,1.25-0.833,2.083-1.458l1.458-5.414c-2.083,0-3.957,0.208-5.623,0.416s-2.916,0.625-3.957,1.041
			c-1.041,0.417-1.874,1.042-2.499,1.458c-0.625,0.625-1.041,1.25-1.249,2.083c-0.209,0.624-0.209,1.249-0.209,1.874
			c0,0.416,0.209,0.833,0.625,1.25c0.208,0.416,0.625,0.624,1.25,0.624C603.718,455.64,604.135,455.64,604.76,455.64z
			 M623.086,458.556l7.081-26.657h2.707c0.417,0,0.833,0.208,1.041,0.208c0.209,0.209,0.209,0.625,0.209,1.042l-0.833,4.373
			c1.457-1.874,2.915-3.54,4.581-4.582c1.666-1.041,3.332-1.666,5.207-1.666c0.833,0,1.457,0,1.874,0.209
			c0.625,0.208,1.041,0.416,1.458,0.624l-1.458,3.541c-0.208,0.416-0.625,0.625-1.041,0.625c-0.209,0-0.625,0-1.042-0.209
			c-0.416-0.208-1.249-0.208-2.082-0.208c-1.666,0-3.124,0.417-4.374,1.458c-1.457,1.041-2.707,2.499-3.956,4.373l-4.374,16.661
			h-4.998V458.556z M644.328,458.556l7.081-26.657h2.707c0.625,0,1.041,0.417,1.041,1.041l-0.416,2.916
			c1.458-1.25,3.124-2.291,4.79-3.124s3.332-1.249,5.206-1.249c1.458,0,2.707,0.208,3.749,0.624c1.041,0.417,1.666,1.25,2.291,2.083
			c0.416,0.833,0.832,1.874,0.832,3.124c0,1.249-0.208,2.707-0.624,4.165l-4.582,16.869h-4.581l4.581-16.869
			c0.625-2.083,0.417-3.54-0.208-4.582c-0.625-1.041-1.874-1.666-3.749-1.666c-1.458,0-2.707,0.417-4.165,1.042
			c-1.458,0.624-2.707,1.666-3.957,2.707l-5.206,19.576H644.328L644.328,458.556z M685.771,431.899l-7.081,26.657h-4.581
			l7.08-26.657H685.771L685.771,431.899z M688.896,423.569c-0.209,0.416-0.417,0.833-0.625,1.25
			c-0.208,0.416-0.625,0.833-1.041,1.041c-0.417,0.208-0.833,0.625-1.25,0.625c-0.416,0.208-0.833,0.208-1.249,0.208
			c-0.417,0-0.833,0-1.25-0.208c-0.416-0.209-0.625-0.417-0.833-0.625s-0.417-0.625-0.417-1.041c0-0.417,0-0.834,0-1.25
			c0.209-0.417,0.417-0.833,0.625-1.25c0.209-0.416,0.625-0.833,1.042-1.041c0.416-0.208,0.833-0.625,1.249-0.625
			c0.417-0.208,0.833-0.208,1.25-0.208c0.416,0,0.833,0,1.249,0.208c0.417,0.209,0.625,0.417,0.833,0.625
			c0.209,0.208,0.417,0.625,0.417,1.041C689.104,422.736,689.104,423.152,688.896,423.569z M686.813,458.556l7.081-26.657h2.707
			c0.625,0,1.041,0.417,1.041,1.041l-0.416,2.916c1.458-1.25,3.124-2.291,4.79-3.124s3.332-1.249,5.206-1.249
			c1.458,0,2.707,0.208,3.749,0.624c1.041,0.417,1.666,1.25,2.291,2.083c0.416,0.833,0.832,1.874,0.832,3.124
			c0,1.249-0.208,2.707-0.624,4.165l-4.582,16.869h-4.581l4.581-16.869c0.625-2.083,0.417-3.54-0.208-4.582
			c-0.625-1.041-1.874-1.666-3.749-1.666c-1.458,0-2.707,0.417-4.165,1.042c-1.458,0.624-2.707,1.666-3.957,2.707l-5.206,19.576
			H686.813L686.813,458.556z M732.005,431.483c1.249,0,2.29,0.208,3.123,0.416c1.042,0.208,1.666,0.625,2.499,1.041h7.289
			l-0.416,1.667c-0.208,0.624-0.625,1.041-1.458,1.041l-3.124,0.416c0.209,1.042,0.209,2.499-0.208,3.749
			c-0.417,1.249-0.833,2.499-1.666,3.54c-0.833,1.042-1.666,1.875-2.707,2.708c-1.042,0.833-2.291,1.249-3.541,1.666
			c-1.249,0.416-2.707,0.624-4.165,0.624c-1.249,0-2.291-0.208-3.332-0.416c-0.625,0.416-1.25,0.833-1.666,1.249
			c-0.416,0.417-0.625,0.833-0.833,1.25c-0.208,0.625,0,1.041,0.417,1.458c0.416,0.416,1.041,0.624,1.874,0.624
			c0.833,0.209,1.666,0.209,2.707,0.209s2.083,0,3.332,0c1.042,0,2.083,0,3.124,0.208s1.874,0.416,2.499,1.041
			c0.625,0.417,1.25,1.042,1.458,1.875s0.208,1.874,0,3.123c-0.208,1.042-0.833,2.291-1.666,3.332
			c-0.833,1.042-1.874,2.083-3.124,2.916c-1.249,0.833-2.707,1.458-4.373,2.083c-1.666,0.416-3.541,0.833-5.415,0.833
			s-3.54-0.209-4.998-0.625c-1.458-0.417-2.499-0.833-3.124-1.458c-0.833-0.625-1.249-1.458-1.458-2.291
			c-0.208-0.833-0.208-1.666,0-2.707c0.417-1.25,1.042-2.499,2.083-3.332s2.499-1.666,3.957-2.291
			c-0.625-0.416-1.042-0.833-1.458-1.458c-0.208-0.624-0.208-1.458,0-2.291c0-0.416,0.208-0.833,0.625-1.249
			c0.208-0.417,0.624-0.833,1.041-1.25c0.416-0.416,0.833-0.833,1.458-1.041c0.416-0.416,1.041-0.625,1.666-1.041
			c-1.042-0.833-1.874-1.666-2.291-2.916c-0.417-1.249-0.417-2.707,0-4.373c0.417-1.25,0.833-2.499,1.666-3.54
			c0.833-1.042,1.666-1.875,2.707-2.708c1.042-0.833,2.291-1.249,3.749-1.666C729.297,431.691,730.547,431.483,732.005,431.483z
			 M732.838,459.805c0.208-0.624,0.208-1.249-0.209-1.666c-0.208-0.416-0.624-0.624-1.249-1.041
			c-0.625-0.208-1.25-0.416-2.083-0.416c-0.833-0.209-1.666-0.209-2.499-0.209s-1.874,0-2.707,0c-1.042,0-1.874-0.208-2.708-0.416
			c-1.041,0.416-2.082,1.041-2.915,1.666s-1.25,1.458-1.666,2.499c-0.208,0.625-0.208,1.249,0,1.666
			c0.208,0.416,0.416,1.041,1.041,1.249c0.625,0.417,1.25,0.625,2.083,0.834c0.833,0.208,2.082,0.416,3.332,0.416
			c1.249,0,2.499-0.208,3.54-0.416c1.042-0.209,2.083-0.625,2.708-1.042c0.832-0.416,1.457-0.833,2.082-1.458
			C732.213,461.263,732.629,460.638,732.838,459.805z M728.256,445.644c1.041,0,1.874-0.208,2.707-0.416
			c0.833-0.209,1.458-0.625,2.083-1.042c0.625-0.416,1.041-1.041,1.458-1.666c0.416-0.625,0.833-1.458,1.041-2.082
			c0.416-1.666,0.208-2.916-0.417-3.957c-0.624-1.041-2.082-1.458-3.956-1.458c-1.875,0-3.333,0.417-4.582,1.458
			c-1.25,1.041-2.083,2.291-2.499,3.957c-0.208,0.833-0.208,1.457-0.208,2.082s0.208,1.25,0.624,1.666
			c0.417,0.417,0.833,0.833,1.458,1.042C726.59,445.436,727.423,445.644,728.256,445.644z M789.275,420.862l-1.25,4.373h-12.079
			l-8.955,33.321h-4.998l8.955-33.321h-12.079l1.25-4.373H789.275z M795.939,431.483c1.666,0,2.916,0.208,4.165,0.833
			c1.25,0.624,2.083,1.249,2.916,2.291c0.624,1.041,1.041,2.29,1.249,3.748s0,3.124-0.625,4.998
			c-0.208,0.833-0.416,1.25-0.624,1.458c-0.209,0.208-0.625,0.417-1.042,0.417h-17.701c-0.417,1.666-0.625,3.123-0.417,4.373
			c0,1.249,0.417,2.291,0.833,3.124c0.417,0.833,1.25,1.457,2.083,1.874s2.082,0.625,3.332,0.625c1.249,0,2.291-0.208,3.124-0.417
			c0.833-0.208,1.666-0.624,2.499-0.833c0.624-0.416,1.249-0.625,1.874-0.833c0.417-0.208,0.833-0.416,1.25-0.416
			c0.416,0,0.624,0.208,0.833,0.416l0.833,1.666c-0.833,0.625-1.666,1.25-2.5,1.875c-1.041,0.416-1.874,0.833-2.915,1.249
			c-1.041,0.417-2.083,0.625-3.124,0.833s-2.082,0.208-2.916,0.208c-1.874,0-3.332-0.208-4.789-0.833
			c-1.458-0.624-2.499-1.457-3.332-2.707c-0.833-1.249-1.25-2.707-1.458-4.373s0-3.749,0.624-6.04
			c0.417-1.874,1.25-3.54,2.291-5.206c1.042-1.666,2.083-2.916,3.541-4.165c1.457-1.25,2.915-2.083,4.581-2.708
			C792.19,431.899,794.065,431.483,795.939,431.483z M795.106,435.023c-2.291,0-4.165,0.625-5.831,1.874
			c-1.666,1.25-2.916,3.124-3.749,5.415h14.37c0.208-1.041,0.416-2.083,0.416-2.916s-0.208-1.666-0.624-2.29
			c-0.417-0.625-1.042-1.25-1.666-1.458C797.188,435.231,796.147,435.023,795.106,435.023z M825.096,458.556h-2.083
			c-0.416,0-0.833,0-1.041-0.208c-0.208-0.209-0.417-0.417-0.417-0.833l0.209-2.499c-0.833,0.624-1.666,1.249-2.5,1.666
			c-0.833,0.416-1.666,0.833-2.499,1.249c-0.833,0.417-1.666,0.625-2.499,0.833s-1.874,0.208-2.915,0.208
			c-1.042,0-1.875-0.208-2.708-0.416s-1.457-0.625-2.082-1.25c-0.417-0.624-0.833-1.249-1.041-2.29
			c-0.209-0.833,0-1.875,0.208-3.124c0.208-1.042,0.833-2.083,1.666-3.124s2.082-1.874,3.54-2.707s3.332-1.458,5.623-1.875
			c2.291-0.416,4.79-0.625,7.914-0.625l0.625-2.082c0.624-2.083,0.624-3.54,0-4.79c-0.625-1.041-1.666-1.666-3.541-1.666
			c-1.041,0-2.082,0.208-2.915,0.417c-0.833,0.208-1.666,0.624-2.291,1.041c-0.625,0.416-1.25,0.625-1.666,1.041
			c-0.417,0.208-0.833,0.417-1.25,0.417c-0.416,0-0.624,0-0.833-0.209c-0.208-0.208-0.416-0.416-0.416-0.624l-0.417-1.458
			c1.874-1.458,3.749-2.499,5.623-3.124s3.749-1.041,5.831-1.041c1.458,0,2.707,0.208,3.749,0.833
			c1.041,0.416,1.874,1.249,2.291,2.082c0.624,0.833,0.833,1.875,0.833,3.124c0,1.25,0,2.499-0.417,4.165L825.096,458.556z
			 M813.85,455.64c0.833,0,1.666,0,2.291-0.208c0.624-0.208,1.457-0.416,2.082-0.625c0.625-0.208,1.458-0.625,2.083-1.041
			c0.624-0.417,1.249-0.833,2.082-1.458l1.458-5.414c-2.082,0-3.957,0.208-5.623,0.416s-2.915,0.625-3.957,1.041
			c-1.041,0.417-1.874,1.042-2.499,1.458c-0.624,0.625-1.041,1.25-1.249,2.083c-0.209,0.624-0.209,1.249-0.209,1.874
			c0,0.416,0.209,0.833,0.625,1.25c0.208,0.416,0.625,0.624,1.25,0.624C812.6,455.64,813.225,455.64,813.85,455.64z
			 M832.176,458.556l7.081-26.657h2.707c0.625,0,1.042,0.417,1.042,1.041l-0.417,2.708c1.25-1.25,2.707-2.291,4.165-2.916
			c1.458-0.833,2.916-1.249,4.582-1.249c1.874,0,3.124,0.416,3.957,1.457c0.833,1.042,1.249,2.291,1.249,3.957
			c0.625-1.041,1.25-1.874,2.083-2.499s1.666-1.249,2.499-1.666c0.833-0.416,1.666-0.833,2.707-1.041
			c0.833-0.208,1.874-0.417,2.707-0.417c1.458,0,2.499,0.209,3.541,0.625c1.041,0.417,1.666,1.041,2.291,1.874
			c0.624,0.833,0.833,1.875,0.833,3.124c0,1.25-0.209,2.708-0.625,4.374l-4.582,16.868h-4.582l4.582-16.868
			c0.625-2.083,0.625-3.749,0-4.79s-1.874-1.666-3.54-1.666c-0.833,0-1.458,0.208-2.291,0.416s-1.458,0.625-2.083,1.25
			c-0.624,0.625-1.249,1.249-1.666,2.082c-0.416,0.833-0.833,1.666-1.249,2.708l-4.582,16.868h-4.581l4.581-16.868
			c0.625-2.083,0.625-3.749,0-4.79c-0.624-1.042-1.666-1.666-3.332-1.666c-1.249,0-2.291,0.416-3.54,0.833
			c-1.25,0.625-2.291,1.458-3.332,2.499l-5.207,19.784h-4.998V458.556z"/>
	</g>
	<path fill="#515151" d="M-134.97,386.082l-3.541,13.12h-4.79l9.372-34.987h10.413c2.291,0,4.165,0.209,5.623,0.833
		c1.458,0.417,2.708,1.25,3.541,2.083c0.833,1.041,1.25,2.082,1.458,3.332c0.208,1.249,0,2.915-0.417,4.373
		c-0.417,1.666-1.041,3.124-2.083,4.582c-0.833,1.249-2.083,2.499-3.541,3.54c-1.458,1.042-2.916,1.666-4.79,2.291
		c-1.875,0.625-3.749,0.833-5.832,0.833H-134.97z M-134.137,382.333h5.623c1.458,0,2.499-0.208,3.749-0.624
		c1.042-0.417,2.083-0.833,2.916-1.458s1.666-1.458,2.291-2.291c0.625-0.833,1.041-1.874,1.25-2.915
		c0.625-2.291,0.417-3.957-0.625-5.207c-1.041-1.249-2.916-1.874-5.831-1.874h-5.623L-134.137,382.333z"/>
	<path id="_x31_" fill="#515151" d="M-98.525,374.003c1.875,0,3.333,0.208,4.582,0.833s2.291,1.458,3.124,2.499
		c0.625,1.042,1.042,2.499,1.25,3.957c0.208,1.666,0,3.332-0.625,5.207c-0.625,1.874-1.25,3.748-2.291,5.206
		c-1.041,1.666-2.083,2.916-3.332,3.957s-2.708,1.874-4.374,2.499s-3.332,0.833-5.206,0.833c-1.875,0-3.333-0.208-4.582-0.833
		s-2.291-1.458-3.124-2.499s-1.25-2.499-1.25-3.957c-0.208-1.666,0-3.332,0.625-5.206c0.417-1.875,1.25-3.749,2.291-5.207
		c1.041-1.666,2.083-2.915,3.54-3.957c1.25-1.041,2.708-1.874,4.374-2.499C-102.065,374.42-100.399,374.003-98.525,374.003z
		 M-104.356,396.287c2.499,0,4.582-0.834,6.04-2.5c1.666-1.666,2.916-3.956,3.749-6.872c0.833-2.915,0.833-5.206,0-6.872
		s-2.291-2.499-4.79-2.499c-1.25,0-2.291,0.208-3.332,0.624c-1.041,0.417-1.874,1.042-2.707,1.875s-1.458,1.874-2.083,2.915
		c-0.625,1.25-1.041,2.499-1.458,3.957s-0.625,2.707-0.625,3.957c0,1.249,0.208,2.082,0.625,2.915
		c0.417,0.834,1.041,1.458,1.875,1.875C-106.646,396.078-105.605,396.287-104.356,396.287z"/>
	<path id="_x32_" fill="#515151" d="M-84.78,374.42h3.332c0.417,0,0.625,0,0.833,0.208c0.208,0.208,0.208,0.417,0.208,0.625
		l0.417,16.035c0,0.625,0,1.25,0,1.666c0,0.625,0,1.042-0.208,1.667c0.208-0.625,0.625-1.042,0.833-1.667
		c0.208-0.624,0.625-1.041,1.042-1.666l9.58-16.035c0.208-0.208,0.417-0.417,0.625-0.625c0.208-0.208,0.417-0.208,0.833-0.208h1.875
		c0.417,0,0.625,0,0.833,0.208c0.208,0.208,0.208,0.417,0.208,0.625l0.833,16.035c0,0.625,0,1.042,0,1.666c0,0.625,0,1.042,0,1.667
		c0.208-0.625,0.417-1.042,0.833-1.667c0.208-0.624,0.625-1.041,0.833-1.666l9.164-16.035c0.208-0.208,0.417-0.417,0.625-0.625
		c0.208-0.208,0.625-0.208,0.833-0.208h3.333l-14.578,24.782h-3.541c-0.417,0-0.625-0.208-0.625-0.833l-1.042-16.869
		c0-0.416,0-0.833,0-1.041c0-0.416,0-0.833,0-1.041c-0.208,0.416-0.417,0.833-0.625,1.249c-0.208,0.417-0.417,0.833-0.625,1.25
		l-9.997,16.869c-0.417,0.624-0.833,0.833-1.25,0.833h-3.332L-84.78,374.42z"/>
	<path id="_x33_" fill="#515151" d="M-34.173,374.003c1.458,0,2.708,0.208,3.957,0.833c1.041,0.417,2.083,1.25,2.708,2.083
		c0.625,1.041,1.041,2.082,1.25,3.54c0.208,1.458,0,2.916-0.417,4.79c-0.208,0.625-0.417,1.041-0.625,1.458
		c-0.208,0.208-0.417,0.416-0.833,0.416h-16.661c-0.417,1.666-0.625,2.916-0.417,4.165c0,1.25,0.417,2.083,0.833,2.916
		s1.042,1.25,2.083,1.666c0.833,0.417,1.875,0.625,3.124,0.625c1.041,0,2.083-0.208,2.916-0.417
		c0.833-0.208,1.666-0.624,2.291-0.833c0.625-0.208,1.25-0.624,1.666-0.833c0.417-0.208,0.833-0.416,1.041-0.416
		c0.417,0,0.625,0.208,0.625,0.416l0.833,1.666c-0.625,0.625-1.458,1.25-2.291,1.666c-0.833,0.417-1.874,0.833-2.707,1.25
		c-0.833,0.208-1.875,0.625-2.916,0.625c-1.042,0.208-1.875,0.208-2.708,0.208c-1.666,0-3.124-0.208-4.582-0.833
		c-1.25-0.625-2.291-1.458-3.124-2.499c-0.833-1.042-1.25-2.499-1.458-4.165c-0.208-1.666,0-3.541,0.625-5.623
		c0.417-1.666,1.25-3.332,2.083-4.79s2.083-2.707,3.332-3.957c1.25-1.041,2.708-1.874,4.374-2.499
		C-37.505,374.42-35.839,374.003-34.173,374.003z M-34.798,377.335c-2.083,0-3.957,0.625-5.415,1.875
		c-1.458,1.249-2.707,2.915-3.54,4.998h13.537c0.208-1.042,0.417-1.875,0.417-2.708s-0.208-1.666-0.625-2.082
		c-0.417-0.625-0.833-1.041-1.666-1.458C-32.924,377.544-33.965,377.335-34.798,377.335z"/>
	<path id="_x34_" fill="#515151" d="M-25.01,399.202l6.664-24.782h2.499c0.417,0,0.833,0,0.833,0.208
		c0.208,0.208,0.208,0.625,0,1.041l-0.833,4.165c1.25-1.874,2.708-3.332,4.374-4.373c1.458-1.041,3.124-1.458,4.79-1.458
		c0.625,0,1.25,0,1.874,0.208c0.417,0.209,1.042,0.417,1.458,0.625l-1.458,3.332c-0.208,0.417-0.625,0.625-0.833,0.625
		c-0.208,0-0.625,0-1.041-0.208s-1.042-0.208-1.875-0.208c-1.458,0-2.916,0.416-4.165,1.457c-1.25,0.833-2.499,2.291-3.541,3.957
		l-4.165,15.619h-4.582V399.202z"/>
	<path id="_x35_" fill="#515151" d="M11.227,374.003c1.458,0,2.708,0.208,3.957,0.833c1.042,0.417,2.083,1.25,2.708,2.083
		c0.625,1.041,1.041,2.082,1.25,3.54c0.208,1.458,0,2.916-0.417,4.79c-0.208,0.625-0.417,1.041-0.625,1.458
		c-0.208,0.208-0.417,0.416-0.833,0.416H0.814c-0.417,1.666-0.625,2.916-0.417,4.165c0,1.25,0.417,2.083,0.833,2.916
		s1.041,1.25,1.875,1.666c0.833,0.417,1.874,0.625,3.124,0.625c1.042,0,2.083-0.208,2.916-0.417
		c0.833-0.208,1.666-0.624,2.291-0.833c0.625-0.208,1.25-0.624,1.666-0.833c0.417-0.208,0.833-0.416,1.042-0.416
		c0.417,0,0.625,0.208,0.625,0.416l0.833,1.666c-0.625,0.625-1.458,1.25-2.291,1.666c-0.833,0.417-1.875,0.833-2.708,1.25
		c-0.833,0.208-1.875,0.625-2.916,0.625c-1.042,0.208-1.875,0.208-2.708,0.208c-1.666,0-3.124-0.208-4.582-0.833
		c-1.25-0.625-2.291-1.458-3.124-2.499c-0.833-1.042-1.25-2.499-1.25-4.165c-0.208-1.666,0-3.541,0.625-5.623
		c0.417-1.666,1.25-3.332,2.083-4.79s2.083-2.707,3.332-3.957c1.25-1.041,2.708-1.874,4.374-2.499
		C7.687,374.42,9.561,374.003,11.227,374.003z M10.394,377.335c-2.083,0-3.957,0.625-5.415,1.875
		c-1.458,1.249-2.708,2.915-3.541,4.998h13.537c0.208-1.042,0.417-1.875,0.417-2.708s-0.208-1.666-0.625-2.082
		c-0.417-0.625-0.833-1.041-1.666-1.458C12.268,377.544,11.435,377.335,10.394,377.335z"/>
	<path id="_x36_" fill="#515151" d="M37.675,399.202c-0.625,0-0.833-0.208-0.833-0.833l0.417-2.916
		c-1.458,1.25-2.916,2.291-4.373,3.124c-1.667,0.833-3.333,1.25-4.999,1.25c-1.458,0-2.707-0.208-3.749-0.833
		c-1.041-0.625-1.875-1.25-2.291-2.499c-0.625-1.042-0.833-2.291-0.833-3.957s0.208-3.332,0.833-5.415
		c0.417-1.874,1.25-3.54,2.083-5.206s2.083-2.916,3.124-4.165c1.25-1.25,2.499-2.083,4.165-2.707
		c1.458-0.625,3.124-1.042,4.79-1.042c1.458,0,2.708,0.208,3.749,0.833c1.042,0.417,1.666,1.25,2.291,2.083l3.749-13.745h4.374
		l-9.58,36.028H37.675z M30.178,396.078c1.458,0,2.708-0.416,3.957-1.041s2.499-1.666,3.749-2.707l3.124-12.079
		c-0.417-1.041-1.25-1.874-2.083-2.291c-0.833-0.416-1.874-0.625-2.916-0.625c-2.291,0-4.374,0.833-6.04,2.499
		s-2.916,3.957-3.749,7.081c-0.417,1.666-0.625,2.916-0.625,4.165c0,1.25,0.208,2.083,0.417,2.916
		c0.417,0.833,0.833,1.249,1.458,1.666C28.304,395.87,29.137,396.078,30.178,396.078z"/>
	<path id="_x37_" fill="#515151" d="M57.251,399.202l9.58-36.028h4.373l-3.957,14.994c1.458-1.249,2.916-2.29,4.373-3.123
		c1.458-0.834,3.124-1.25,4.79-1.25c1.458,0,2.708,0.208,3.749,0.833c1.042,0.625,1.875,1.25,2.291,2.499
		c0.625,1.041,0.833,2.291,0.833,3.957s-0.208,3.332-0.833,5.415c-0.417,1.874-1.25,3.54-2.083,5.206s-1.875,2.916-3.124,4.165
		c-1.25,1.25-2.499,2.083-4.165,2.707c-1.458,0.625-3.124,1.042-4.79,1.042s-2.916-0.209-3.749-1.042
		c-1.041-0.624-1.666-1.457-2.291-2.707l-0.833,2.291c-0.208,0.625-0.833,0.833-1.458,0.833h-2.708V399.202z M74.121,377.544
		c-1.458,0-2.708,0.416-3.957,1.041s-2.499,1.666-3.749,2.915l-3.124,11.871c0.417,1.041,1.25,1.874,2.083,2.291
		c0.833,0.416,1.875,0.625,2.916,0.625c2.291,0,4.374-0.834,6.04-2.5s2.916-3.956,3.749-7.08c0.417-1.666,0.625-2.916,0.625-4.165
		c0-1.25-0.208-2.083-0.417-2.916c-0.417-0.833-0.833-1.249-1.458-1.666C75.995,377.752,75.162,377.544,74.121,377.544z"/>
	<path id="_x38_" fill="#515151" d="M89.115,406.699c-0.208,0.417-0.417,0.625-0.833,0.833c-0.208,0.209-0.625,0.209-1.041,0.209
		h-3.124l7.081-9.788l-3.957-23.533h3.749c0.417,0,0.625,0,0.833,0.208c0.208,0.208,0.208,0.417,0.208,0.625l2.291,15.827
		c0,0.417,0,0.625,0,1.041c0,0.417,0,0.833,0,1.042c0.208-0.417,0.417-0.833,0.625-1.042c0.208-0.416,0.417-0.833,0.625-1.041
		l10.621-15.827c0.208-0.208,0.417-0.417,0.625-0.625c0.208-0.208,0.625-0.208,0.833-0.208h3.54L89.115,406.699z"/>
</g>
</svg>
