<?xml version="1.0" encoding="utf-8"?>
<!-- Generator: Adobe Illustrator 16.0.0, SVG Export Plug-In . SVG Version: 6.00 Build 0)  -->
<!DOCTYPE svg PUBLIC "-//W3C//DTD SVG 1.1//EN" "http://www.w3.org/Graphics/SVG/1.1/DTD/svg11.dtd">
<svg version="1.1" id="Layer_1" xmlns="http://www.w3.org/2000/svg" xmlns:xlink="http://www.w3.org/1999/xlink" x="0px" y="0px"
	 width="612px" height="774.267px" viewBox="0 0 612 774.267" enable-background="new 0 0 612 774.267" xml:space="preserve">
<g>
	<defs>
		<rect id="SVGID_1_" width="612" height="774.267"/>
	</defs>
	<clipPath id="SVGID_2_">
		<use xlink:href="#SVGID_1_"  overflow="visible"/>
	</clipPath>
	<path clip-path="url(#SVGID_2_)" fill="#70B859" d="M559.217,91.169H455.838V23.991C455.838,10.469,444.932,0,431.41,0
		c-1.312,0-2.187,0.438-2.614,0.875C428.357,0.438,427.482,0,427.046,0H184.079h-1.74h-1.75c-13.521,0-23.99,10.469-23.99,23.991
		V91.17H52.783C23.116,91.17,0,114.286,0,143.953v38.387v47.981h45.803v491.6c0,29.668,22.679,52.346,52.346,52.346h415.704
		c29.667,0,52.781-22.678,52.781-52.346v-491.6H612V182.34v-38.387C612,114.286,588.875,91.169,559.217,91.169 M204.58,47.981
		h202.84v43.188H204.58V47.981z M518.216,721.922c0,3.061-1.313,4.362-4.363,4.362H98.149c-3.052,0-4.364-1.303-4.364-4.362V230.32
		h424.431V721.922z M563.582,182.339H48.418v-38.387c0-3.053,1.312-4.802,4.364-4.802h506.435c3.053,0,4.365,1.749,4.365,4.802
		V182.339z"/>
	<rect x="393.898" y="286.593" clip-path="url(#SVGID_2_)" fill="#70B859" width="48.418" height="396.94"/>
	<rect x="282.228" y="286.593" clip-path="url(#SVGID_2_)" fill="#70B859" width="48.418" height="396.94"/>
	<rect x="170.557" y="286.593" clip-path="url(#SVGID_2_)" fill="#70B859" width="48.418" height="396.94"/>
</g>
</svg>
