<?xml version="1.0" encoding="utf-8"?>
<!-- Generator: Adobe Illustrator 16.0.0, SVG Export Plug-In . SVG Version: 6.00 Build 0)  -->
<!DOCTYPE svg PUBLIC "-//W3C//DTD SVG 1.1//EN" "http://www.w3.org/Graphics/SVG/1.1/DTD/svg11.dtd">
<svg version="1.1" id="Capa_1" xmlns="http://www.w3.org/2000/svg" xmlns:xlink="http://www.w3.org/1999/xlink" x="0px" y="0px"
	 width="768px" height="768px" viewBox="128 0 768 768" enable-background="new 128 0 768 768" xml:space="preserve">
<g>
	<circle fill="#EAEAEA" cx="512" cy="384" r="384"/>
	<g>
		<path fill="#F7A517" d="M541.751,559.74L375.005,393.686c-6.227-6.918-9.687-14.529-9.687-23.523
			c0-8.991,3.459-16.604,9.687-22.833l166.747-166.741c6.227-6.229,14.529-9.688,23.523-9.688s16.604,3.459,22.834,9.688
			l19.371,19.372c6.229,6.228,9.688,13.838,9.688,22.833c0,8.994-3.459,16.604-9.688,22.832L483.632,370.158l123.852,124.54
			c6.227,6.229,9.688,13.838,9.688,22.833c0,8.994-3.461,16.604-9.688,23.523l-19.373,19.373
			c-6.229,6.228-13.839,9.687-22.832,9.687C555.589,569.427,547.979,565.967,541.751,559.74z"/>
	</g>
</g>
</svg>
