<?xml version="1.0" encoding="utf-8"?>
<!-- Generator: Adobe Illustrator 16.0.0, SVG Export Plug-In . SVG Version: 6.00 Build 0)  -->
<!DOCTYPE svg PUBLIC "-//W3C//DTD SVG 1.1//EN" "http://www.w3.org/Graphics/SVG/1.1/DTD/svg11.dtd">
<svg version="1.1" id="Isolation_Mode" xmlns="http://www.w3.org/2000/svg" xmlns:xlink="http://www.w3.org/1999/xlink" x="0px"
	 y="0px" width="578.959px" height="130px" viewBox="0 0 578.959 130" enable-background="new 0 0 578.959 130"
	 xml:space="preserve">
<g>
	<g>
		<g>
			<g>
				<g>
					<path fill="#FFFFFF" d="M547.661,65.346c1.209,6.218,1.139,10.61,1.129,11.161l-0.021,0.248v0.517v28.567h-11.047v3.94
						l-1.624-0.187c-1.421-0.149-2.847-0.229-4.242-0.229c-10.679,0-21.22,4.398-24.576,7.025l-0.66,0.512l-0.955,0.74l-0.949-0.74
						l-0.662-0.512c-3.359-2.627-13.901-7.025-24.579-7.025c-1.394,0-2.82,0.076-4.239,0.229l-1.761,0.187v-3.94h-11.038V77.271
						v-0.41l-0.022-0.406c-0.006-0.104-0.354-11.107,4.945-23.81c6.811-16.328,19.669-28.178,38.241-35.292
						c10.279,3.932,18.807,9.331,25.529,16.125c1.506-4.009,4.026-7.535,7.275-10.213C529.71,14.97,518.686,8.552,505.6,4.192
						c-13.27,4.423-24.434,10.957-33.186,19.43c-7.101,6.868-12.652,15.023-16.5,24.25c-6.562,15.72-5.891,29.146-5.883,29.278
						l0.002,0.063v0.061v46.748h111.131v-46.75V77.21l0.004-0.062c0.002-0.078,0.221-4.814-0.937-11.884
						c-2.057,0.565-4.208,0.898-6.44,0.898C551.672,66.165,549.626,65.866,547.661,65.346z"/>
				</g>
				<path fill="#FFFFFF" d="M532.231,86.188c-0.703,0-1.275,0.563-1.275,1.271c0,0.698,0.572,1.271,1.275,1.271h6.719
					c0.695,0,1.266-0.569,1.266-1.271c0-0.705-0.568-1.271-1.266-1.271H532.231z"/>
				<path fill="#FFFFFF" d="M540.234,94.705c0-0.699-0.569-1.266-1.27-1.266h-8.262c-0.701,0-1.275,0.563-1.275,1.266
					c0,0.699,0.574,1.271,1.275,1.271h8.262C539.665,95.975,540.234,95.402,540.234,94.705z"/>
				<path fill="#FFFFFF" d="M538.965,97.064h-6.732c-0.704,0-1.276,0.563-1.276,1.264c0,0.709,0.557,1.273,1.276,1.273h6.732
					c0.699,0,1.27-0.574,1.27-1.273C540.234,97.63,539.665,97.064,538.965,97.064z"/>
				<path fill="#FFFFFF" d="M540.224,91.085c0-0.701-0.565-1.282-1.271-1.282h-9.164c-0.707,0-1.277,0.581-1.277,1.282
					s0.57,1.269,1.277,1.269h9.164C539.658,92.352,540.224,91.787,540.224,91.085z"/>
				<path fill="#FFFFFF" d="M470.731,87.457c0,0.699,0.565,1.271,1.266,1.271h6.715c0.703,0,1.281-0.57,1.281-1.271
					c0-0.705-0.578-1.27-1.281-1.27h-6.713C471.297,86.188,470.731,86.751,470.731,87.457z"/>
				<path fill="#FFFFFF" d="M470.723,91.085c0,0.701,0.566,1.269,1.263,1.269h9.172c0.706,0,1.284-0.563,1.284-1.269
					c0-0.701-0.578-1.282-1.284-1.282h-9.172C471.286,89.803,470.723,90.384,470.723,91.085z"/>
				<path fill="#FFFFFF" d="M470.717,94.705c0,0.697,0.564,1.271,1.263,1.271h8.262c0.707,0,1.281-0.572,1.281-1.271
					c0-0.701-0.574-1.266-1.281-1.266h-8.262C471.284,93.439,470.717,94.005,470.717,94.705z"/>
				<path fill="#FFFFFF" d="M470.717,98.328c0,0.699,0.564,1.273,1.263,1.273h6.733c0.713,0,1.279-0.564,1.279-1.273
					c0-0.697-0.578-1.264-1.279-1.264h-6.733C471.284,97.064,470.717,97.63,470.717,98.328z"/>
				<path fill="#FFFFFF" d="M516.961,45.692l-0.045,0.647c-0.004,0.071-0.328,6.008,1.99,8.345c0.264-0.974,0.875-2.434,2.262-3.469
					c-1.609-7.145-7.977-12.477-15.6-12.477c-7.637,0-14.003,5.363-15.597,12.522c0.516,0.234,2.001,1.087,2.337,3.303
					c0.979-0.662,2.602-2.549,1.938-7.584l-0.193-1.511l1.188,0.965c0.074,0.053,6.953,5.466,16.814,2.104
					c-0.798-0.439-1.812-1.073-2.569-1.786l-1.132-1.06L516.961,45.692L516.961,45.692z"/>
				<path fill="#FFFFFF" d="M522.86,49.983c0.026-0.359,0.051-0.716,0.051-1.084c0-9.495-7.695-17.188-17.191-17.188
					c-9.497,0-17.202,7.693-17.202,17.188c0,0.368,0.04,0.725,0.055,1.084c2.328-7.251,9.12-12.883,17.147-12.883
					C513.745,37.1,520.538,42.732,522.86,49.983z"/>
				<path fill="#FFFFFF" d="M524.865,56.746c0-2.497-1.094-4.525-2.442-4.525c-0.351,0-0.695,0.159-1.002,0.415
					c0-0.009,0-0.021,0-0.037c-1.32,1.344-1.479,3.192-1.479,3.209l-0.067,0.96l-0.84-0.471c-3.171-1.769-3.377-7.44-3.351-9.388
					h-3.973c1.062,0.687,2.098,1.155,2.111,1.163l1.282,0.591l-1.307,0.532c-8.805,3.588-15.623,0.479-18.205-1.067
					c0.443,6.899-3.5,7.919-3.678,7.968l-0.748,0.173v-0.766c0-1.841-0.908-2.665-1.418-2.99c0,0.015-0.006,0.034-0.006,0.043
					c-0.283-0.208-0.58-0.335-0.902-0.335c-1.35,0-2.438,2.027-2.438,4.521c0,2.481,1.088,4.499,2.438,4.499
					c0.642,0,1.215-0.459,1.654-1.196c2.186,6.236,8.1,10.707,15.08,10.707c7.022,0,12.975-4.523,15.135-10.817
					c0.438,0.813,1.051,1.307,1.717,1.307C523.771,61.246,524.865,59.231,524.865,56.746z M503.002,58.632
					c0.383-1.137,1.42-1.886,2.566-1.886c1.145,0,2.176,0.749,2.569,1.868c0.102,0.314-0.059,0.645-0.363,0.758
					c-0.313,0.106-0.651-0.053-0.761-0.371c-0.224-0.638-0.812-1.079-1.444-1.079c-0.639,0-1.222,0.441-1.442,1.099
					c-0.084,0.242-0.313,0.399-0.558,0.399c-0.067,0-0.136-0.018-0.194-0.035C503.067,59.28,502.895,58.932,503.002,58.632z
					 M514.309,54.53c0,1.315-1.065,2.396-2.389,2.396c-1.326,0-2.396-1.081-2.396-2.396c0-1.329,1.069-2.396,2.396-2.396
					C513.243,52.134,514.309,53.201,514.309,54.53z M499.224,56.927c-1.314,0-2.396-1.081-2.396-2.396
					c0-1.329,1.08-2.396,2.396-2.396c1.323,0,2.396,1.073,2.396,2.396C501.62,55.854,500.547,56.927,499.224,56.927z
					 M505.569,63.884c2.258,0,4.356-0.212,6.145-1.314c-1.256,2.087-3.533,3.481-6.145,3.481c-2.605,0-4.89-1.397-6.139-3.481
					C501.215,63.672,503.319,63.884,505.569,63.884z"/>
				<g>
					<path fill="#FFFFFF" d="M529.454,74c-1.891-0.979-7.209-3.359-12.285-2.078c-0.998-1.3-1.375-1.742-1.375-1.742
						s-0.658-0.596-1.467-0.225c-1.002,0.341-1.072,1.217-1.072,1.217c0,4.033-3.168,7.335-7.14,7.587h-1.136
						c-3.972-0.252-7.126-3.555-7.126-7.587c0,0-0.083-0.876-1.079-1.217c-0.808-0.371-1.472,0.225-1.472,0.225
						s-0.375,0.442-1.372,1.742c-5.072-1.283-10.403,1.1-12.288,2.078c16.542,0,23.9,7.8,23.9,7.8S512.852,74,529.454,74z"/>
				</g>
				<path fill="#FFFFFF" d="M539.846,85.453c0,0-0.915-1.682-2.411-1.979v1.707h1.569C539.006,85.182,539.461,85.223,539.846,85.453
					z"/>
				<path fill="#FFFFFF" d="M471.1,85.453c0,0,0.917-1.682,2.41-1.979v1.707h-1.568C471.94,85.182,471.488,85.223,471.1,85.453z"/>
				<g>
					<path fill="#FFFFFF" d="M532.301,85.154h4.281v-9.586c-18.717-2.709-28.049,5.139-30.39,7.258v32.873
						c3.056-2.396,15.824-8.799,30.39-7.238v-7.826h-4.281c-1.293,0-2.313-1.021-2.313-2.309c0-0.5,0.168-0.963,0.443-1.344
						c-1.109-0.168-1.972-1.125-1.972-2.281c0-0.564,0.209-1.072,0.559-1.473c-0.86-0.35-1.471-1.172-1.471-2.146
						c0-1.279,1.039-2.318,2.316-2.318h0.539c-0.263-0.373-0.417-0.822-0.417-1.309C529.987,86.188,531.026,85.154,532.301,85.154z"
						/>
					<path fill="#FFFFFF" d="M474.502,75.568v9.586h4.279c1.274,0,2.318,1.035,2.318,2.303c0,0.488-0.154,0.939-0.417,1.309h0.54
						c1.278,0,2.315,1.039,2.315,2.318c0,0.975-0.609,1.799-1.465,2.146c0.334,0.397,0.559,0.906,0.559,1.472
						c0,1.157-0.861,2.114-1.979,2.282c0.278,0.381,0.448,0.845,0.448,1.343c0,1.289-1.017,2.31-2.318,2.31h-4.279v7.825
						c14.567-1.562,27.332,4.845,30.392,7.24V82.828C502.889,80.707,493.288,72.859,474.502,75.568z"/>
				</g>
				<g>
					<path fill="#FFFFFF" d="M499.174,70.777c-0.016,0.133-0.026,0.261-0.026,0.395c0,3.531,2.864,6.396,6.396,6.396
						c3.533,0,6.393-2.865,6.393-6.396c0-0.258,0.001-0.096-0.02-0.341c-1.41,0.601-2.869,0.919-4.406,1.049
						c-0.646,0.074-1.303,0.118-1.967,0.118C503.297,71.998,501.147,71.564,499.174,70.777z"/>
				</g>
			</g>
			<path fill="#FFFFFF" d="M553.795,19.783c12.24,0,22.164,9.925,22.164,22.167c0,12.235-9.922,22.159-22.164,22.159
				c-12.24,0-22.162-9.924-22.162-22.159C531.633,29.709,541.556,19.783,553.795,19.783z"/>
		</g>
	</g>
	<g id="_1530766352">
		<polygon fill="#7366AB" points="207.188,38.67 197.558,38.67 197.558,48.352 207.188,48.352 		"/>
		<path fill="#7366AB" d="M288.647,76.871c0,3.143-0.259,5.23-0.699,6.283c-0.967,1.912-2.981,2.869-6.222,2.869h-5.269h-3.05
			h-5.707v-2.519c0-5.843-1.839-10.651-5.427-14.573c-3.591-3.918-8.323-5.841-14.194-5.841c-5.856,0-10.59,1.921-14.268,5.671
			c-3.592,3.745-5.431,8.543-5.431,14.391c0,0.957,0,1.914,0.091,2.869H221.9h-2.887h-13.932c1.406-1.658,2.105-4.967,2.105-10.113
			V56.375h-9.729V76.43c0,3.059-0.351,5.322-1.044,6.627c-1.058,2.012-2.98,2.967-5.873,2.967h-7.017h-2.083h-14.998h-2.264h-5.536
			c0-21.975-11.201-38.374-30.209-42.204l-1.228,9.336c12.695,2.606,21.718,15.513,21.718,30.168c0,0.875,0,1.742-0.085,2.699
			H137.28c1.484-3.57,2.274-6.629,2.274-9.06c0-10.472-7.008-16.925-17.252-16.925c-10.246,0-17.342,6.454-17.342,16.925
			c0,2.522,0.795,5.488,2.286,9.06H97.079h-1.918H81.48h-3.748H66.684c0.346-1.824,0.519-3.57,0.519-5.396V39.723h-9.883v39.765
			c0,12.293-7.362,21.621-17.694,21.621c-10.686,0-17.867-9.582-17.867-21.621v-7.412h-9.899v8.554
			c0,16.39,12.522,29.813,27.767,29.813c9.631,0,18.648-5.4,23.639-14.479h14.47h3.749h13.68h1.918h67.104h2.263h14.998h2.083
			h35.486h2.887h10.514c3.769,5.062,8.937,7.589,15.666,7.589c6.85,0,12.09-2.527,15.864-7.589h9.464h3.05h7.285
			c9.804,0,14.71-5.229,14.71-15.78v-40.46h-9.807L288.647,76.871L288.647,76.871z M122.305,86.293L122.305,86.293
			c-4.725,0-8.055-4.016-8.055-9.328c0-5.242,2.895-9.165,8.055-9.165c4.818,0,8.053,3.661,8.053,9.165
			C130.357,82.189,126.943,86.293,122.305,86.293z M255.349,91.17L255.349,91.17c-1.661,2.182-4.022,3.316-6.997,3.316
			c-6.046,0-9.904-5.141-9.904-11.432c0-3.041,0.795-5.664,2.282-7.666c1.755-2.357,4.119-3.492,7.1-3.492
			c3.053,0,5.606,1.22,7.447,3.582c1.566,2.185,2.358,4.877,2.358,7.937C257.635,86.55,256.843,89.167,255.349,91.17z"/>
		<polygon fill="#7366AB" points="307.473,95.963 317.2,95.963 317.2,39.629 307.473,39.629 		"/>
		<path fill="#FFFFFF" d="M356.867,89.689c0,8.367-4.016,12.388-12.16,12.388v8.366c15.055,0,21.978-6.541,21.978-22.238v-31.83
			h-9.816L356.867,89.689L356.867,89.689z"/>
		<polygon fill="#FFFFFF" points="375.702,95.963 385.423,95.963 385.423,39.629 375.702,39.629 		"/>
		<path fill="#FFFFFF" d="M417.562,57.768c-2.273-0.781-4.018-1.134-5.244-1.214c-1.233-0.085-4.295-0.178-9.109-0.178v8.896
			c3.148,0,6.123,0.178,8.849,0.785c8.846,1.92,13.311,8.547,13.311,19.969h-31.698v9.938h41.583v-9.938
			C435.171,71.116,429.304,61.697,417.562,57.768z"/>
	</g>
</g>
</svg>
