<?xml version="1.0" encoding="utf-8"?>
<!-- Generator: Adobe Illustrator 16.0.0, SVG Export Plug-In . SVG Version: 6.00 Build 0)  -->
<!DOCTYPE svg PUBLIC "-//W3C//DTD SVG 1.1//EN" "http://www.w3.org/Graphics/SVG/1.1/DTD/svg11.dtd">
<svg version="1.1" id="Layer_1" xmlns="http://www.w3.org/2000/svg" xmlns:xlink="http://www.w3.org/1999/xlink" x="0px" y="0px"
	 width="612px" height="774.268px" viewBox="0 0 612 774.268" enable-background="new 0 0 612 774.268" xml:space="preserve">
<g>
	<g>
		<g>
			<g>
				<g>
					<g>
						<g>
							<defs>
								<rect id="SVGID_1_" y="0" width="612" height="774.268"/>
							</defs>
							<clipPath id="SVGID_2_">
								<use xlink:href="#SVGID_1_"  overflow="visible"/>
							</clipPath>
							<path clip-path="url(#SVGID_2_)" fill="#E55539" d="M559.217,91.169H455.838V23.991C455.838,10.469,444.932,0,431.41,0
								c-1.313,0-2.188,0.438-2.614,0.875C428.357,0.438,427.482,0,427.046,0H184.079h-1.74h-1.75
								c-13.521,0-23.99,10.47-23.99,23.991V91.17H52.783C23.116,91.17,0,114.286,0,143.953v38.387v47.979h45.803v491.604
								c0,29.668,22.679,52.346,52.346,52.346h415.705c29.666,0,52.78-22.678,52.78-52.346V230.321H612v-47.979v-38.387
								C612,114.286,588.875,91.169,559.217,91.169 M204.58,47.981h202.84v43.188H204.58V47.981z M518.216,721.923
								c0,3.061-1.313,4.356-4.362,4.356H98.149c-3.052,0-4.364-1.303-4.364-4.356V230.32h424.431V721.923z M563.582,182.339H48.418
								v-38.387c0-3.058,1.312-4.807,4.364-4.807h506.435c3.053,0,4.365,1.749,4.365,4.807V182.339z"/>
						</g>
					</g>
				</g>
			</g>
		</g>
	</g>
	<g>
		<g>
			<g>
				<g>
					<g>
						<g>
							<defs>
								<rect id="SVGID_3_" y="0" width="612" height="774.268"/>
							</defs>
							<clipPath id="SVGID_4_">
								<use xlink:href="#SVGID_3_"  overflow="visible"/>
							</clipPath>
							<rect x="393.898" y="286.593" clip-path="url(#SVGID_4_)" fill="#E55539" width="48.418" height="396.938"/>
						</g>
					</g>
				</g>
			</g>
		</g>
	</g>
	<g>
		<g>
			<g>
				<g>
					<g>
						<g>
							<defs>
								<rect id="SVGID_5_" y="0" width="612" height="774.268"/>
							</defs>
							<clipPath id="SVGID_6_">
								<use xlink:href="#SVGID_5_"  overflow="visible"/>
							</clipPath>
							<rect x="282.228" y="286.593" clip-path="url(#SVGID_6_)" fill="#E55539" width="48.418" height="396.938"/>
						</g>
					</g>
				</g>
			</g>
		</g>
	</g>
	<g>
		<g>
			<g>
				<g>
					<g>
						<g>
							<defs>
								<rect id="SVGID_7_" y="0" width="612" height="774.268"/>
							</defs>
							<clipPath id="SVGID_8_">
								<use xlink:href="#SVGID_7_"  overflow="visible"/>
							</clipPath>
							<rect x="170.557" y="286.593" clip-path="url(#SVGID_8_)" fill="#E55539" width="48.418" height="396.938"/>
						</g>
					</g>
				</g>
			</g>
		</g>
	</g>
</g>
</svg>
